<svg xmlns="http://www.w3.org/2000/svg" xmlns:xlink="http://www.w3.org/1999/xlink" width="168.38" height="202.41" version="1.1" viewBox="0 0 168.38 202.41"><defs><linearGradient id="f" x1="31.9" x2="174" y1="36.3" y2="179.2" gradientTransform="translate(-17.92 -26.287)" gradientUnits="userSpaceOnUse"><stop offset="0" stop-color="#cf00ff"/><stop offset="1" stop-color="#5289cf"/></linearGradient><linearGradient id="d" x1="76.5" x2="39.8" y1="185.7" y2="75.7" gradientTransform="translate(-25.62 6.7129)" gradientUnits="userSpaceOnUse"><stop offset="0" stop-color="#386ed4"/><stop offset="1" stop-color="#6bb1d4"/></linearGradient><linearGradient id="h" x1="333.43" x2="695.8" y1="381.34" y2="700.8" gradientTransform="matrix(.26458 0 0 .26458 -25.62 6.7129)" gradientUnits="userSpaceOnUse"><stop offset="0" stop-color="#ff6200"/><stop offset="1" stop-color="#ed1b37"/></linearGradient><filter id="g" width="1.189" height="1.117" x="-.095" y="-.058" color-interpolation-filters="sRGB"><feGaussianBlur stdDeviation="1.1"/></filter><filter id="e" width="1.222" height="1.115" x="-.111" y="-.057" color-interpolation-filters="sRGB"><feGaussianBlur stdDeviation="1.7"/></filter></defs><path fill="url(#d)" d="m14.18 82.413h36.7v110h-36.7v-110z"/><path fill-opacity=".5" d="m14.08 82.813c0.41075 15.774 1.0441 32.225 8.3473 46.579 4.8115 9.6023 13.594 16.411 22.699 21.692 1.7239 1.0463 6.593 5.3651 5.6358 0.77315-0.02725-4.1112-0.0545-8.2223-0.08174-12.333-36.6-56.711 0 0-36.6-56.711z" filter="url(#e)"/><path fill="url(#f)" d="m79.88 152.81c-18.751-2.3838-35.77-15.322-47.54-29.378-9.4375-11.74-17.148-25.726-18.16-41.022h36.7c0.50176 17.906 15.966 34.454 34.198 34.423 17.392 0.80509 33.967-13.057 35.838-30.451 2.7111-16.94-9.0444-34.644-25.865-38.399-9.2268-1.7332-18.702-0.94528-28.05-1.4198l-16.921-0.35344-36.1-36.2c23.118 0.2682 46.243-0.1097 69.356 0.01209 11.236 0.75806 22.667 2.133 32.775 7.492 24.687 11.732 41.242 38.525 40.186 65.918-0.45534 20.416-10.014 41.101-26.676 53.216-15.146 9.7747-31.381 17.34-49.741 16.162z" color="#000" style="-inkscape-stroke:none"/><path fill-opacity=".5" d="m79.88 152.81c-5.8-15.033-11.48-30.171-17.28-45.204 9.3333 14.867 18.547 29.837 27.88 44.704-3.8134 0.55426-7.2468 0.56114-10.6 0.50003z" filter="url(#g)"/><path fill="url(#h)" d="m62.6 107.61c11.952 10.847 29.647 12.101 43.108 3.1954l52.672 81.408-42.6-0.1c-53.18-84.504 0.0195-4e-3 -53.18-84.504z"/></svg>