<?xml version="1.0" encoding="UTF-8"?>
<svg width="162.84mm" height="163.31mm" version="1.1" viewBox="0 0 162.84 163.31" xmlns="http://www.w3.org/2000/svg" xmlns:xlink="http://www.w3.org/1999/xlink"><defs><linearGradient id="b" x1="49.268" x2="157.12" y1="84.035" y2="214.38" gradientTransform="translate(-6.5622 -37.468)" gradientUnits="userSpaceOnUse"><stop stop-color="#c87137" offset="0"/><stop stop-color="#fff" offset="1"/></linearGradient><linearGradient id="a" x1="24.348" x2="182.32" y1="39.474" y2="198.11" gradientTransform="translate(-6.2001 -23.194)" gradientUnits="userSpaceOnUse"><stop stop-color="#ec3ba7" offset="0"/><stop stop-color="#00dcd5" offset="1"/></linearGradient><filter id="c" x="-.12471" y="-.10837" width="1.2667" height="1.2318" color-interpolation-filters="sRGB"><feFlood flood-color="rgb(0,0,0)" flood-opacity=".49804" result="flood"/><feComposite in="flood" in2="SourceGraphic" operator="out" result="composite1"/><feGaussianBlur in="composite1" result="blur" stdDeviation="3"/><feOffset dx="1" dy="1" result="offset"/><feComposite in="offset" in2="SourceGraphic" operator="in" result="composite2"/></filter></defs><g transform="translate(-15.406 -15.348)"><path d="m94.545 17.834c-19.941 0.51097-39.755 8.4699-54.023 22.502-5.063 4.983-9.3434 10.736-12.875 16.89-8.8373 15.709-11.542 34.489-8.6905 52.196 2.5857 16.244 9.8939 31.884 21.49 43.647 3.7055 3.8015 7.905 7.0829 12.326 10.008 21.121 14.18 49.36 17.11 72.894 7.398 4.7175-1.9285 9.1792-4.4332 13.394-7.2892 14.427-9.3641 26.098-23.166 32.257-39.281 3.3099-8.6584 4.8799-17.997 4.3808-27.262 0.3715-19.743-7.7738-39.195-21.092-53.623-10.511-11.457-24.476-19.903-39.766-23.046-6.6312-1.6142-13.476-2.3122-20.297-2.1387z" color="#000000" fill="url(#a)" fill-rule="evenodd" stroke="#000" stroke-linecap="round" stroke-linejoin="round" stroke-width="2.9197" style="-inkscape-stroke:none"/><path d="m96.146 44.85c-9.7895 0.37879-19.217 4.936-26.032 11.899-2.722 2.8494-4.9888 6.0956-7.2039 9.3439-8.7225 13.085-13.982 28.195-16.996 43.552-2.8315 14.315-3.8503 28.917-4.245 43.482 0.3215 0.81087 1.1435 1.3048 1.7044 1.9558 13.022 12.77 30.968 20.061 49.103 20.987 21.341 1.052 42.956-7.1831 58.189-22.166 0.35091-0.83533 0.0687-1.7975 0.15105-2.6867-0.11538-15.842-1.5121-31.738-5.2227-47.167-2.992-12.669-7.2258-25.249-14.393-36.211-4.4967-6.8704-10.249-12.978-17.121-17.51-2.834-2.1513-6.2657-3.7985-9.7914-4.6562-2.658-0.65507-5.4079-0.91471-8.1422-0.82423z" color="#000000" fill="url(#b)" fill-rule="evenodd" stroke="#000" stroke-linecap="round" stroke-linejoin="round" stroke-width="3"/><path d="m113.84 106.62c0.26396 6.8846-7.0349 11.697-13.424 10.435h-16.2v-20.914c7.8602 0.545 16.114-1.1761 23.72 1.04 3.4887 1.7365 6.0202 5.4868 5.9043 9.4391zm-13.353 24.363c5.873 5.5569 11.162 11.835 17.458 16.881 5.5694 2.7243 12.412-4.089 9.0371-9.5516-2.9848-4.16-7.0947-7.3841-10.577-11.132 12.285-7.2333 15.308-25.924 5.5147-36.438-5.5016-6.566-14.344-9.4804-22.732-8.5147-8.016 0.1197-16.09-0.35687-24.069 0.28662-5.0426 1.5432-5.2614 7.4317-4.8243 11.768 0.14154 16.416-0.33406 32.883 0.25473 49.268 1.5789 5.8535 11.024 6.6298 13.056 0.69161 1.216-4.2952 0.3818-8.8447 0.61026-13.26 5.4238-2e-5 10.848 4e-5 16.271-3e-5z" color="#000000" fill="#808080" filter="url(#c)" style="-inkscape-stroke:none"/></g></svg>
