<svg xmlns="http://www.w3.org/2000/svg" width="25" height="32" version="1.1" viewBox="0 0 25 32"><style>@media (prefers-color-scheme:dark){path{fill:#fff}}</style><path d="M12.5 25.953q0.547 0 0.906-0.352t0.359-0.898v-15.578l-0.156-3.844-0.813 0.281 4.75 5.266 2.234 2.172q0.156 0.156 0.391 0.25t0.484 0.094q0.531 0 0.875-0.359t0.344-0.875q0-0.5-0.391-0.922l-8.047-8.063q-0.406-0.438-0.938-0.438t-0.938 0.438l-8.047 8.063q-0.391 0.422-0.391 0.922 0 0.516 0.344 0.875t0.875 0.359q0.25 0 0.484-0.094t0.391-0.25l2.234-2.172 4.734-5.266-0.797-0.281-0.156 3.844v15.578q0 0.547 0.359 0.898t0.906 0.352z"/></svg>