<svg height="32" viewBox="0 0 35 32" width="35" xmlns="http://www.w3.org/2000/svg"><path d="m17.563 21.656q1.844 0 3.352-.891t2.406-2.406.898-3.359q0-1.859-.898-3.367t-2.406-2.406-3.352-.898-3.352.898-2.406 2.406-.898 3.367q0 1.844.898 3.359t2.406 2.406 3.352.891zm0-2.109q-1.25 0-2.289-.609t-1.656-1.641-.617-2.297.617-2.305 1.648-1.648 2.297-.609q1.25 0 2.289.609t1.656 1.648.617 2.305-.617 2.297-1.656 1.641-2.289.609zm8.796-7.484q.656 0 1.125-.461t.469-1.117q0-.672-.469-1.133t-1.125-.461-1.125.461-.469 1.133q0 .656.469 1.117t1.125.461zm-19.25 13.656h20.906q1.984 0 2.984-.984t1-2.953v-12.781q0-1.969-1-2.945t-2.984-.977h-2.703q-.719 0-1.055-.188t-.727-.625l-.953-1.078q-.453-.484-1.023-.773t-1.523-.289h-4.953q-.969 0-1.531.289t-1.016.773l-.953 1.078q-.406.438-.742.625t-1.039.188h-2.688q-1.984 0-2.984.977t-1 2.945v12.781q0 1.969 1 2.953t2.984.984zm.032-2.266q-.844 0-1.305-.445t-.461-1.336v-12.547q0-.891.461-1.344t1.305-.453h3.25q.813 0 1.336-.203t.977-.703l.922-1.047q.531-.578.938-.789t1.25-.211h3.469q.844 0 1.258.211t.93.789l.938 1.047q.453.5.969.703t1.344.203h3.266q.844 0 1.305.453t.461 1.344v12.547q0 .891-.461 1.336t-1.305.445h-20.844z"/></svg>