<!-- Generated by IcoMoon.io -->
<svg version="1.1" xmlns="http://www.w3.org/2000/svg" width="866" height="1024" viewBox="0 0 866 1024">
<style>@media (prefers-color-scheme:dark){path{fill:#fff}}</style>
</g>
<path d="M225.5 880h414.5q63 0 94.5-32t31.5-95.5v-348.5q0-41.5-7.5-64.75t-33-49.75l-207.5-212q-24.5-25-48-32.75t-59.5-7.75h-185q-63 0-94.25 32t-31.25 95.5v588q0 64 31.25 95.75t94.25 31.75zM229 808q-28 0-42.5-14.75t-14.5-41.75v-586q0-27 14.5-41.75t43-14.75h168.5v222.5q0 39 19.75 58.75t58.75 19.75h217v341.5q0 27-14.5 41.75t-42.5 14.75h-407.5zM485 342.5q-20 0-20-20v-200l215 220h-195z"></path>
</svg>
