<svg xmlns="http://www.w3.org/2000/svg" xmlns:xlink="http://www.w3.org/1999/xlink" width="1em" height="1em" aria-hidden="true" class="iconify iconify--fluent" preserveAspectRatio="xMidYMid meet" role="img" viewBox="0 0 24 24"><g fill="none"><path fill="currentColor" d="M8.5 3.75a.75.75 0 0 0-1.5 0v2.5a.75.75 0 0 1-.75.75h-2.5a.75.75 0 0 0 0 1.5h2.5A2.25 2.25 0 0 0 8.5 6.25v-2.5z"/><path fill="currentColor" d="M8.5 20.25a.75.75 0 0 1-1.5 0v-2.5a.75.75 0 0 0-.75-.75h-2.5a.75.75 0 0 1 0-1.5h2.5a2.25 2.25 0 0 1 2.25 2.25v2.5z"/><path fill="currentColor" d="M16.25 3a.75.75 0 0 0-.75.75v2.5a2.25 2.25 0 0 0 2.25 2.25h2.5a.75.75 0 0 0 0-1.5h-2.5a.75.75 0 0 1-.75-.75v-2.5a.75.75 0 0 0-.75-.75z"/><path fill="currentColor" d="M15.5 20.25a.75.75 0 0 0 1.5 0v-2.5a.75.75 0 0 1 .75-.75h2.5a.75.75 0 0 0 0-1.5h-2.5a2.25 2.25 0 0 0-2.25 2.25v2.5z"/></g></svg>