<svg height="32" viewBox="0 0 27 32" width="27" xmlns="http://www.w3.org/2000/svg"><path d="m7.344 25.391h12.125q.125 0 .25-.008t.25-.023l-14.078-14.078q-.516.281-.766.836t-.25 1.398v9.266q0 1.344.617 1.977t1.852.633zm6.031-24.907q-1.328 0-2.555.5t-2.164 1.516-1.422 2.578q-.016.016-.016.031t-.016.047l1.859 1.859q0-.047.008-.094t.008-.078q.156-1.375.766-2.313t1.531-1.422 2-.484q1.203 0 2.195.586t1.578 1.719.586 2.789v3.188l-4.766.016 8.906 8.906v-6.328q0-1.172-.469-1.805t-1.422-.758v-2.891q0-2.563-.938-4.242t-2.445-2.5-3.227-.82zm9.969 26.141q.313.313.766.313t.75-.313q.313-.328.32-.766t-.32-.766l-21.094-21.078q-.313-.313-.766-.32t-.766.32q-.313.297-.313.75t.313.766z"/></svg>