<svg height="32" viewBox="0 0 32 32" width="32" xmlns="http://www.w3.org/2000/svg"><path d="m15.406 19.328 1.828-1.859q-1.094-.156-1.844-.5t-1.281-.891q-1.047-1.047-1.398-2.305t-.008-2.508 1.375-2.281l4-4q1.031-1.047 2.289-1.391t2.516 0 2.305 1.391q1.047 1.063 1.398 2.32t0 2.508-1.383 2.281l-2.109 2.109q.297.688.375 1.422t0 1.391l3.422-3.422q1.5-1.5 2.008-3.32t0-3.641-2.023-3.336q-1.516-1.531-3.336-2.031t-3.641.008-3.32 2.008l-4.188 4.203q-1.5 1.5-2.008 3.313t0 3.641 2.023 3.344q.516.516 1.219.906t1.781.641zm1.157-10.234-1.844 1.875q1.109.156 1.859.5t1.281.891q1.047 1.047 1.398 2.305t.008 2.508-1.375 2.281l-4 4q-1.047 1.047-2.297 1.391t-2.508 0-2.305-1.391q-1.047-1.063-1.398-2.32t-.008-2.508 1.391-2.281l2.109-2.109q-.297-.688-.375-1.422t0-1.391l-3.422 3.422q-1.516 1.5-2.016 3.32t0 3.641 2.031 3.336q1.516 1.516 3.336 2.023t3.641 0 3.32-2.008l4.188-4.203q1.5-1.5 2.008-3.313t0-3.641-2.023-3.344q-.516-.516-1.227-.906t-1.773-.656z"/></svg>