<svg height="32" viewBox="0 0 25 32" width="25" xmlns="http://www.w3.org/2000/svg"><path d="m7.234 26.703h10.938q.438 0 .75-.305t.313-.758q0-.438-.313-.742t-.75-.305h-10.938q-.438 0-.742.305t-.305.742q0 .453.305.758t.742.305zm4.422-1.515h2.109v-3.516h-2.109zm5.61-4.172-1.5-1.484q-.672.281-1.438.445t-1.625.164q-2.078 0-3.617-.867t-2.391-2.438-.852-3.664v-2.438q0-.453-.305-.758t-.742-.305-.75.305-.313.758v2.531q0 1.969.656 3.594t1.859 2.797 2.844 1.805 3.609.633q1.297 0 2.438-.273t2.125-.805zm-4.563-3.219q.594 0 1.188-.141l-2.188-2.188h-.094q-.344-.141-.617-.414t-.43-.664l-.016-.078-2.453-2.453v.984q0 1.469.594 2.586t1.633 1.742 2.383.625zm9 5.469q.313.328.766.328t.75-.328q.313-.313.32-.758t-.32-.758l-19.188-19.172q-.313-.313-.758-.313t-.773.313q-.297.313-.297.766t.297.766zm-2.484-7.688 1.641 1.641q.813-1.797.813-3.953v-2.531q0-.453-.305-.758t-.742-.305-.75.305-.313.758v2.438q0 1.281-.344 2.406zm-1.906-10.328q0-1.469-.586-2.586t-1.625-1.742-2.398-.625q-1.828 0-3.063 1.133t-1.484 2.992v.109l2.047 2.031v-1.313q0-1.344.695-2.109t1.805-.766q1.125 0 1.813.766t.688 2.109v6.313l2.063 2.063q.016-.188.031-.383t.016-.398v-7.594z"/></svg>