<svg height="32" viewBox="0 0 29 32" width="29" xmlns="http://www.w3.org/2000/svg"><path d="m4.375 13.766q0-1.828.586-3.555t1.68-3.18 2.609-2.469q-.297.813-.438 1.711t-.141 1.914q0 3.859 1.492 6.602t4.297 4.195 6.727 1.453q.906 0 1.68-.109t1.539-.375q-.922 1.453-2.336 2.508t-3.172 1.617-3.68.563q-2.344 0-4.328-.805t-3.445-2.266-2.266-3.453-.805-4.352zm17.156 4.64q-3.328 0-5.75-1.266t-3.727-3.609-1.305-5.563q0-1.391.211-2.555t.539-1.773q.156-.297.195-.469t.039-.391q0-.328-.281-.656t-.719-.328q-.078 0-.266.031t-.484.141q-2.281.938-4.039 2.75t-2.758 4.18-1 4.961q0 2.813.961 5.18t2.695 4.109 4.102 2.703 5.18.961q2.719 0 5.008-.891t4.016-2.563 2.727-4q.125-.281.164-.492t.039-.32q0-.438-.305-.695t-.602-.258q-.172 0-.32.023t-.398.117q-.797.313-1.813.492t-2.109.18z"/></svg>