<svg height="32" viewBox="0 0 32 32" width="32" xmlns="http://www.w3.org/2000/svg"><path d="m10.813 14.328q0 .719-.531 1.242t-1.234.523q-.719 0-1.242-.523t-.523-1.242q0-.703.516-1.234t1.25-.531q.703 0 1.234.531t.531 1.234zm5.734 0q0 .719-.523 1.242t-1.242.523q-.703 0-1.227-.523t-.523-1.242q0-.703.523-1.234t1.227-.531q.719 0 1.242.531t.523 1.234zm5.75 0q0 .719-.523 1.242t-1.242.523q-.703 0-1.234-.523t-.531-1.242q0-.703.523-1.234t1.242-.531 1.242.531.523 1.234zm-7.5 12.594q2.594 0 4.875-.984t4.023-2.734 2.734-4.031.992-4.859-.992-4.859-2.742-4.023-4.031-2.734-4.875-.992q-2.578 0-4.859.992t-4.016 2.734-2.727 4.023-.992 4.859.992 4.859 2.734 4.031 4.023 2.734 4.859.984zm0-2.375q-2.125 0-3.977-.789t-3.25-2.195-2.188-3.258-.789-3.992q0-2.125.781-3.984t2.18-3.258 3.25-2.195 3.977-.797q2.141 0 3.992.797t3.258 2.195 2.203 3.258.797 3.984q0 2.141-.789 3.992t-2.188 3.258-3.258 2.195-4 .789z"/></svg>