<svg height="32" viewBox="0 0 29 32" width="29" xmlns="http://www.w3.org/2000/svg"><path d="m14.719 29.078q.125 0 .328-.297t.406-.82.344-1.211.141-1.469v-6.406h-2.422v6.406q0 .781.141 1.469t.344 1.211.398.82.32.297zm-7.813-9.047h15.625q.891 0 1.414-.516t.523-1.359q0-1.359-.727-2.664t-2.039-2.367-3.094-1.695-3.891-.633q-2.094 0-3.875.633t-3.094 1.695-2.039 2.367-.727 2.664q0 .844.523 1.359t1.398.516zm.594-2.109q-.406 0-.313-.484.156-.984 1.078-2.055t2.547-1.813 3.906-.742 3.906.742 2.555 1.813 1.086 2.055q.078.484-.328.484h-14.438zm-1.062-16.313q0 .656.5 1.281.469.609 1.492 1.422t2.242 1.625l-.453 6.516h2.234l.453-7.578q.016-.234-.141-.313-.969-.484-1.695-.938t-1.156-.781-.492-.406q-.094-.125-.039-.195t.148-.07h10.391q.078 0 .133.07t-.023.195q-.063.078-.492.406t-1.164.781-1.703.938q-.156.078-.125.313l.453 7.578h2.234l-.469-6.516q1.234-.813 2.25-1.625t1.484-1.422q.516-.625.516-1.281 0-.594-.422-.992t-1.109-.398h-13.516q-.688 0-1.109.398t-.422.992z"/></svg>