<svg height="32" viewBox="0 0 34 32" width="34" xmlns="http://www.w3.org/2000/svg"><path d="m6.922 24.281h2.484v-2.109h-2.516q-.734 0-1.125-.391t-.391-1.125v-11.672q0-.734.391-1.125t1.125-.391h20.484q.719 0 1.109.391t.391 1.125v11.672q0 .734-.391 1.125t-1.109.391h-2.313v2.109h2.281q1.844 0 2.82-.945t.977-2.789v-11.453q0-1.844-.977-2.789t-2.82-.945h-20.422q-1.75 0-2.773.945t-1.023 2.789v11.453q0 1.844.969 2.789t2.828.945zm6.156-1.078h8.141q.359 0 .602-.234t.242-.594-.242-.609-.602-.25h-8.141q-.375 0-.625.25t-.25.609.25.594.625.234zm-2.687 4.688h13.484q1.125 0 1.703-.539t.578-1.742v-10.766q0-1.188-.578-1.734t-1.703-.547h-13.484q-1.063 0-1.672.547t-.609 1.734v10.766q0 1.203.578 1.742t1.703.539zm.734-2.094q-.359 0-.563-.195t-.203-.586v-9.594q0-.375.203-.563t.563-.188h12.016q.375 0 .563.188t.188.563v9.594q0 .391-.188.586t-.563.195zm1.953-6.844h8.141q.359 0 .602-.25t.242-.609-.242-.594-.602-.234h-8.141q-.375 0-.625.234t-.25.594.25.609.625.25zm-5.078-12.328h2.172v-1.906q0-.688.375-1.055t1.078-.367h11.016q.703 0 1.078.367t.375 1.055v1.875h2.156v-1.703q0-1.875-.93-2.75t-2.711-.875h-10.953q-1.672 0-2.664.875t-.992 2.75z"/></svg>