<svg height="32" viewBox="0 0 29 32" width="29" xmlns="http://www.w3.org/2000/svg"><path d="m18 13.344h5.391q1.266 0 1.883-.641t.617-1.922v-5.281q0-1.281-.617-1.922t-1.883-.641h-5.391q-1.25 0-1.875.641t-.625 1.922v5.281q0 1.281.625 1.922t1.875.641zm-12.375 12.375h5.391q1.25 0 1.875-.633t.625-1.93v-5.281q0-1.281-.625-1.914t-1.875-.633h-5.391q-1.25 0-1.875.633t-.625 1.914v5.281q0 1.297.625 1.93t1.875.633zm.016-1.969q-.563 0-.563-.578v-5.297q0-.594.563-.594h5.344q.578 0 .578.594v5.297q0 .578-.578.578zm1.593-1.906h2.156q.266 0 .266-.297v-2.078q0-.281-.266-.281h-2.156q-.25 0-.25.281v2.078q0 .297.25.297zm9.125 3.25h2.156q.266 0 .266-.297v-2.078q0-.281-.266-.281h-2.156q-.25 0-.25.281v2.078q0 .297.25.297zm-10.734-11.75h5.391q1.25 0 1.875-.641t.625-1.922v-5.281q0-1.281-.625-1.922t-1.875-.641h-5.391q-1.25 0-1.875.641t-.625 1.922v5.281q0 1.281.625 1.922t1.875.641zm.016-1.969q-.563 0-.563-.594v-5.297q0-.578.563-.578h5.344q.578 0 .578.578v5.297q0 .594-.578.594zm1.593-1.906h2.156q.266 0 .266-.297v-2.078q0-.281-.266-.281h-2.156q-.25 0-.25.281v2.078q0 .297.25.297zm9.125 9.125h2.156q.266 0 .266-.297v-2.078q0-.281-.266-.281h-2.156q-.25 0-.25.281v2.078q0 .297.25.297zm6.5 6.5h2.156q.266 0 .266-.297v-2.078q0-.281-.266-.281h-2.156q-.25 0-.25.281v2.078q0 .297.25.297zm-3.218-3.25h2.156q.266 0 .266-.297v-2.078q0-.281-.266-.281h-2.156q-.25 0-.25.281v2.078q0 .297.25.297zm3.218-3.25h2.156q.266 0 .266-.297v-2.078q0-.281-.266-.281h-2.156q-.25 0-.25.281v2.078q0 .297.25.297zm-4.828-7.219q-.578 0-.578-.594v-5.297q0-.578.578-.578h5.344q.563 0 .563.578v5.297q0 .594-.563.594zm1.672-1.906h2.156q.266 0 .266-.297v-2.078q0-.281-.266-.281h-2.156q-.25 0-.25.281v2.078q0 .297.25.297z"/></svg>