<svg height="32" viewBox="0 0 40 32" width="40" xmlns="http://www.w3.org/2000/svg"><path d="m22.906 19.766q.359.25.813.172t.75-.5q.734-.969 1.133-2.328t.398-2.797-.398-2.789-1.133-2.336q-.297-.422-.75-.5t-.813.172q-.438.313-.508.789t.273.93q.516.688.789 1.695t.273 2.039-.281 2.031-.781 1.703q-.328.469-.266.938t.5.781zm4.922 3.312q.406.266.859.18t.75-.508q1.203-1.703 1.875-3.898t.672-4.539-.664-4.547-1.883-3.891q-.313-.422-.758-.508t-.852.18-.461.734.258.922q1 1.422 1.555 3.281t.555 3.828-.57 3.828-1.539 3.297q-.297.438-.25.906t.453.734zm4.969 3.36q.391.266.844.164t.766-.523q1.703-2.406 2.617-5.453t.914-6.313-.93-6.305-2.602-5.461q-.313-.438-.766-.531t-.844.172q-.406.281-.461.75t.258.906q1.453 2.125 2.289 4.844t.836 5.625-.828 5.633-2.313 4.836q-.297.438-.242.906t.461.75zm-27.609-6.782h3.563q.172 0 .266.094l5.656 5.078q.5.453.93.664t.914.211q.672 0 1.125-.438t.453-1.125v-19.547q0-.672-.453-1.156t-1.156-.484q-.484 0-.867.234t-.945.734l-5.656 4.984q-.109.109-.266.109h-3.563q-1.406 0-2.102.719t-.695 2.234v4.734q0 1.5.695 2.227t2.102.727zm.109-2.109q-.328 0-.492-.164t-.164-.492v-5.125q0-.328.164-.492t.492-.164h4.094q.234 0 .43-.063t.414-.266l5.266-4.766q.047-.031.094-.055t.094-.023q.156 0 .156.156v16.469q0 .156-.156.156-.094 0-.188-.078l-5.266-4.766q-.219-.203-.414-.266t-.43-.063h-4.094z"/></svg>