<svg height="32" viewBox="0 0 33 32" width="33" xmlns="http://www.w3.org/2000/svg"><path d="m7.766 27.094q.438.328.969.227t1.156-.555l6.359-4.672 6.375 4.672q.625.453 1.156.555t.953-.227q.422-.313.5-.844t-.172-1.25l-2.516-7.484 6.422-4.609q.625-.438.883-.914t.086-.992q-.172-.5-.648-.742t-1.258-.227l-7.875.063-2.391-7.531q-.234-.734-.609-1.125t-.906-.391-.898.391-.617 1.125l-2.391 7.531-7.875-.063q-.766-.016-1.25.227t-.656.742q-.172.516.086.992t.883.914l6.422 4.609-2.516 7.484q-.25.719-.172 1.25t.5.844z"/></svg>