<svg height="32" viewBox="0 0 33 32" width="33" xmlns="http://www.w3.org/2000/svg"><path d="m19.859 22.25q.453 0 .758-.313t.305-.781v-2.906h2.844q.5 0 .844-.328t.344-.781q0-.438-.344-.758t-.844-.32h-2.844v-2.891q0-.469-.305-.781t-.758-.313q-.438 0-.742.313t-.305.781v2.891h-2.984q-.438 0-.773.328t-.336.75q0 .438.336.773t.773.336h2.984v2.906q0 .469.305.781t.742.313zm-6.531 5.328h13.016q2 0 2.992-.984t.992-2.953v-12.953q0-1.969-.992-2.945t-2.992-.977h-13.016q-2 0-2.992.977t-.992 2.945v12.953q0 1.969.992 2.953t2.992.984zm-6.219-6.047h2.609v-2.25h-2.578q-.844 0-1.305-.453t-.461-1.344v-12.563q0-.891.461-1.344t1.305-.453h12.953q.844 0 1.305.453t.461 1.344v2.75h2.25v-2.875q0-1.969-.992-2.945t-2.992-.977h-13.016q-2 0-2.992.977t-.992 2.945v12.813q0 1.969.992 2.945t2.992.977zm6.25 3.782q-.844 0-1.305-.453t-.461-1.328v-12.719q0-.891.461-1.344t1.305-.453h12.953q.844 0 1.305.453t.461 1.344v12.719q0 .891-.461 1.336t-1.305.445z"/></svg>