<svg height="32" viewBox="0 0 30 32" width="30" xmlns="http://www.w3.org/2000/svg"><path d="m10.438 25.953q.484 0 .766-.297t.281-.813v-21.063q0-.516-.281-.813t-.766-.297q-.5 0-.773.297t-.273.813v21.063q0 .516.273.813t.773.297zm9.187 0q.484 0 .766-.297t.281-.813v-21.063q0-.516-.281-.813t-.766-.297q-.5 0-.781.297t-.281.813v21.063q0 .516.281.813t.781.297zm-15.391-6.125h21.625q.516 0 .813-.281t.297-.766q0-.5-.297-.773t-.813-.273h-21.625q-.516 0-.813.273t-.297.773q0 .484.297.766t.813.281zm0-8.89h21.625q.516 0 .813-.281t.297-.766q0-.5-.297-.773t-.813-.273h-21.625q-.516 0-.813.273t-.297.773q0 .484.297.766t.813.281z"/></svg>