<svg height="32" viewBox="0 0 30 32" width="30" xmlns="http://www.w3.org/2000/svg"><path d="m13.875 20.438q.688 0 1.125-.656l5.859-9.281q.125-.203.234-.43t.109-.461q0-.484-.352-.758t-.805-.273q-.578 0-.953.641l-5.281 8.531-2.625-3.5q-.234-.328-.484-.453t-.531-.125q-.469 0-.781.328t-.313.781.313.859l3.281 4.141q.281.328.563.492t.641.164zm1.266 6.687q.125 0 .352-.055t.477-.195q2.625-1.438 4.445-2.578t2.938-2.242 1.617-2.383.5-3.016v-9.406q0-.953-.43-1.367t-1.148-.727q-.484-.203-1.547-.602t-2.305-.844-2.305-.82-1.547-.547q-.234-.078-.508-.133t-.539-.055-.539.07-.508.117q-.484.125-1.547.492t-2.305.828-2.313.875-1.539.617q-.719.313-1.148.727t-.43 1.367v9.406q0 1.734.5 3.016t1.617 2.383 2.93 2.242 4.453 2.578q.25.141.469.195t.359.055zm0-2.562q-.141 0-.313-.055t-.484-.242q-2.109-1.25-3.523-2.164t-2.242-1.75-1.188-1.828-.359-2.414v-8.438q0-.219.063-.328t.25-.188q.75-.297 1.711-.633t1.984-.688 1.977-.695 1.703-.641q.125-.047.227-.07t.195-.023.195.023.227.07q.75.297 1.695.648t1.961.719 1.977.703 1.727.586q.203.078.258.188t.055.328v8.438q0 1.422-.352 2.414t-1.18 1.828-2.242 1.75-3.539 2.164q-.297.188-.469.242t-.313.055z"/></svg>