<svg height="32" viewBox="0 0 34 32" width="34" xmlns="http://www.w3.org/2000/svg"><path d="m10.969 27.953q.516 0 .938-.273t1.063-.852l4.188-3.75h7.344q1.922 0 3.227-.68t1.969-1.984.664-3.195v-9.094q0-1.891-.664-3.195t-1.969-1.984-3.227-.68h-15.516q-1.922 0-3.227.68t-1.969 1.984-.664 3.195v9.094q0 1.891.664 3.195t1.969 1.984 3.227.68h.453v3.109q0 .813.398 1.289t1.133.477zm.578-2.562v-3.516q0-.578-.242-.813t-.805-.234h-1.516q-1.891 0-2.75-.906t-.859-2.703v-9.094q0-1.797.859-2.695t2.75-.898h15.516q1.891 0 2.75.898t.859 2.695v9.094q0 1.797-.859 2.703t-2.75.906h-7.469q-.563 0-.914.117t-.727.523z"/></svg>