<svg height="32" viewBox="0 0 28 32" width="28" xmlns="http://www.w3.org/2000/svg"><path d="m22.625 23.859.797-17.516h1.297q.422 0 .727-.313t.305-.734-.305-.734-.727-.313h-5.484v-1.781q0-1.391-.844-2.195t-2.313-.805h-4.547q-1.469 0-2.32.805t-.852 2.195v1.781h-5.453q-.406 0-.719.313t-.313.734.313.734.719.313h1.297l.813 17.531q.063 1.406.898 2.211t2.258.805h11.297q1.391 0 2.234-.813t.922-2.219zm-12.031-21.25q0-.469.313-.766t.797-.297h4.203q.5 0 .805.297t.305.766v1.641h-6.422v-1.641zm-2.219 22.188q-.484 0-.813-.328t-.359-.844l-.813-17.281h14.797l-.766 17.281q-.016.516-.344.844t-.844.328h-10.859zm9.063-2q-.359 0-.586-.266t-.227-.641l.359-12.5q0-.375.242-.641t.555-.266q.344 0 .578.258t.219.648l-.344 12.516q-.016.391-.242.641t-.555.25zm-7.235 0q-.344 0-.57-.25t-.227-.641l-.359-12.516q0-.391.227-.648t.57-.258q.328 0 .563.266t.25.641l.344 12.5q.016.375-.219.641t-.578.266zm3.61 0q-.328 0-.578-.266t-.25-.625v-12.516q0-.375.25-.641t.578-.266q.344 0 .586.266t.242.641v12.516q0 .359-.242.625t-.586.266z"/></svg>