<svg height="32" viewBox="0 0 30 32" width="30" xmlns="http://www.w3.org/2000/svg"><path d="m15.141 27.125q.125 0 .352-.055t.477-.195q2.625-1.438 4.445-2.578t2.938-2.242 1.617-2.383.5-3.016v-9.406q0-.953-.43-1.367t-1.148-.727q-.484-.203-1.547-.602t-2.305-.844-2.305-.82-1.547-.547q-.234-.078-.508-.133t-.539-.055-.539.07-.508.117q-.484.125-1.547.492t-2.305.828-2.313.875-1.539.617q-.719.313-1.148.727t-.43 1.367v9.406q0 1.734.5 3.016t1.617 2.383 2.93 2.242 4.453 2.578q.25.141.469.195t.359.055zm0-2.562q-.141 0-.313-.055t-.484-.242q-2.109-1.25-3.523-2.164t-2.242-1.75-1.188-1.828-.359-2.414v-8.438q0-.219.063-.328t.25-.188q.75-.297 1.711-.633t1.984-.688 1.977-.695 1.703-.641q.125-.047.227-.07t.195-.023.195.023.227.07q.75.297 1.695.648t1.961.719 1.977.703 1.727.586q.203.078.258.188t.055.328v8.438q0 1.422-.352 2.414t-1.18 1.828-2.242 1.75-3.539 2.164q-.297.188-.469.242t-.313.055zm0-8.032q1.031 0 1.047-1.078l.203-6.406q.016-.516-.352-.867t-.914-.352q-.563 0-.914.344t-.336.859l.172 6.422q.031 1.078 1.094 1.078zm0 4.094q.578 0 1.008-.398t.43-.977q0-.594-.43-.984t-1.008-.391-1.008.398-.43.977q0 .563.43.969t1.008.406z"/></svg>