<svg height="32" viewBox="0 0 31 32" width="31" xmlns="http://www.w3.org/2000/svg"><path d="m11.719 26.313h7.719q.719 0 1.242-.148t.938-.438.789-.711l4.578-5.125q.641-.703.852-1.273t.211-1.492v-5.484q0-.922-.211-1.5t-.852-1.281l-4.578-5.125q-.375-.422-.789-.711t-.938-.438-1.242-.148h-7.719q-.703 0-1.227.148t-.938.438-.789.711l-4.594 5.125q-.625.703-.836 1.281t-.211 1.5v5.484q0 .922.211 1.492t.836 1.273l4.594 5.125q.375.422.789.711t.938.438 1.227.148zm.797-2.25q-.531 0-.875-.078t-.602-.273-.555-.523l-4.172-4.641q-.344-.406-.461-.727t-.117-.977v-4.922q0-.672.117-.992t.461-.711l4.172-4.641q.297-.328.555-.523t.602-.281.875-.086h6.125q.547 0 .883.086t.594.281.57.523l4.172 4.641q.344.391.461.711t.117.992v4.922q0 .656-.117.977t-.461.727l-4.172 4.641q-.313.328-.57.523t-.594.273-.883.078zm-1.063-4.438q.484 0 .781-.328l3.328-3.344 3.344 3.344q.344.328.797.328t.781-.328.328-.797q0-.453-.328-.781l-3.328-3.328 3.344-3.359q.328-.328.328-.766 0-.469-.328-.797t-.781-.328q-.438 0-.766.344l-3.391 3.344-3.344-3.328q-.297-.328-.766-.328-.453 0-.781.32t-.328.773q0 .469.328.781l3.328 3.344-3.328 3.344q-.328.313-.328.766 0 .469.328.797t.781.328z"/></svg>