<svg height="32" viewBox="0 0 35 32" width="35" xmlns="http://www.w3.org/2000/svg"><path d="m23.922 25.953q.547 0 .938-.422l6.953-7.125q.391-.391.391-.922 0-.563-.344-.906t-.891-.344q-.281 0-.484.094t-.375.25l-3.219 3.328-2.578 3.094.672.25.188-4.016v-15.281q0-.547-.352-.906t-.898-.359q-.563 0-.914.359t-.352.906v15.281l.188 4.016.672-.25-2.578-3.094-3.219-3.328q-.156-.156-.367-.25t-.477-.094q-.563 0-.906.344t-.344.906q0 .531.391.922l6.953 7.125q.406.422.953.422zm-12.5 0q.547 0 .898-.359t.352-.906v-15.281l-.188-4.016-.672.25 2.578 3.094 3.219 3.328q.172.156.375.25t.484.094q.547 0 .891-.344t.344-.906q0-.531-.391-.922l-6.953-7.125q-.391-.422-.938-.422t-.953.422l-6.953 7.125q-.391.391-.391.922 0 .563.344.906t.906.344q.266 0 .477-.094t.367-.25l3.219-3.328 2.578-3.094-.672-.25-.188 4.016v15.281q0 .547.352.906t.914.359z"/></svg>