<svg height="32" viewBox="0 0 32 32" width="32" xmlns="http://www.w3.org/2000/svg"><path d="m12.25 22.484h16.344q.516 0 .813-.281t.297-.766q0-.5-.297-.773t-.813-.273h-16.172q-.938 0-1.398-.516t-.461-1.391v-16.156q0-.531-.313-.852t-.813-.32q-.516 0-.82.32t-.305.852v16.281q0 1.953.977 2.914t2.961.961zm7.719-15.531h-16.359q-.516 0-.813.289t-.297.773.297.766.813.281h16.172q.938 0 1.406.508t.469 1.383v16.172q0 .531.305.852t.82.32q.5 0 .813-.32t.313-.852v-16.281q0-1.953-.984-2.922t-2.953-.969z"/></svg>