<svg height="32" viewBox="0 0 31 32" width="31" xmlns="http://www.w3.org/2000/svg"><path d="m16.766 2.125v3.766q0 .5-.367.859t-.852.359q-.5 0-.859-.359t-.359-.859v-3.766q0-.484.359-.852t.859-.367q.484 0 .852.367t.367.852zm0 20.516v3.766q0 .484-.367.852t-.852.367q-.5 0-.859-.367t-.359-.852v-3.766q0-.5.359-.859t.859-.359q.484 0 .852.359t.367.859zm10.906-7.157h-3.766q-.5 0-.859-.359t-.359-.859.359-.859.859-.359h3.766q.5 0 .859.359t.359.859-.359.859-.859.359zm-24.266-2.437h3.781q.5 0 .859.359t.359.859-.359.859-.859.359h-3.781q-.5 0-.859-.359t-.359-.859.359-.859.859-.359zm5.235-3.953-2.641-2.672q-.344-.344-.344-.852t.344-.867q.344-.344.852-.336t.867.352l2.641 2.672q.344.344.344.852t-.344.852q-.359.359-.867.359t-.852-.359zm11.922-1.563 2.672-2.672q.344-.344.852-.344t.867.344q.344.344.344.859t-.344.875l-2.656 2.656q-.359.344-.875.344t-.859-.344q-.344-.359-.344-.867t.344-.852zm1.734 11.75 2.656 2.656q.344.359.344.875t-.344.859q-.359.344-.867.344t-.852-.344l-2.672-2.672q-.344-.344-.344-.852t.344-.867q.344-.344.859-.344t.875.344zm-16.172 2.657 2.672-2.641q.344-.344.859-.344t.844.344q.359.359.359.867t-.359.852l-2.656 2.656q-.344.344-.859.344t-.859-.359q-.344-.344-.344-.852t.344-.867z"/></svg>