<svg height="32" viewBox="0 0 32 32" width="32" xmlns="http://www.w3.org/2000/svg"><path d="m15.953 5.625q-.547-.641-1.453-1.148t-2.039-.805-2.352-.297q-1.734 0-3.164.523t-2.422 1.336-1.398 1.719v16.969q0 .813.445 1.148t1.023.336q.453 0 .75-.125t.594-.344q.391-.297.961-.594t1.359-.5 1.852-.203q1.047 0 1.883.188t1.438.469.945.547q.281.219.641.391t.938.172v-19.781zm-10.578 2q.172-.406.766-.906t1.594-.867 2.375-.367q1.359 0 2.367.375t1.602.875.75.891v15.203q-.906-.625-2.133-.961t-2.586-.336-2.594.344-2.141 1v-15.25zm10.578-2v19.781q.578 0 .93-.18t.648-.383q.359-.234.961-.523t1.43-.484 1.891-.195q1.047 0 1.844.203t1.367.508.961.586q.281.219.578.344t.75.125q.578 0 1.023-.336t.445-1.148v-16.969q-.406-.906-1.398-1.719t-2.422-1.336-3.148-.523q-1.234 0-2.367.297t-2.039.805-1.453 1.148zm10.578 2v15.25q-.906-.656-2.141-1t-2.578-.344q-1.359 0-2.594.336t-2.141.961v-15.203q.156-.391.75-.891t1.602-.875 2.383-.375q1.359 0 2.359.367t1.594.867.766.906z"/></svg>