<svg height="32" viewBox="0 0 32 32" width="32" xmlns="http://www.w3.org/2000/svg"><path d="m4.344 12.859q.172.188.414.18t.414-.195q2.172-2.313 4.969-3.5t5.984-1.188q3.219 0 6.016 1.203t4.984 3.5q.156.172.391.164t.406-.18l1.672-1.688q.156-.172.164-.359t-.117-.344q-1.391-1.719-3.5-3.07t-4.68-2.133-5.336-.781-5.328.781-4.672 2.133-3.5 3.07q-.125.156-.125.344t.172.359zm11.781 11.329q.203 0 .422-.125t.563-.469l2.891-2.781q.141-.125.164-.32t-.086-.367q-.609-.766-1.641-1.336t-2.313-.57q-1.313 0-2.359.602t-1.641 1.398q-.078.125-.047.297t.188.297l2.875 2.781q.344.344.563.469t.422.125zm-6.891-6.422q.188.203.422.188t.422-.234q1.047-1.172 2.656-1.938t3.391-.75q1.797-.016 3.414.773t2.695 1.961q.172.188.391.188t.406-.188l1.875-1.859q.156-.156.172-.344t-.125-.359q-1.344-1.641-3.688-2.75t-5.141-1.109-5.133 1.109-3.68 2.75q-.141.172-.133.352t.18.352z"/></svg>