<svg xmlns="http://www.w3.org/2000/svg" viewBox="0 0 35 35"><style>@media (prefers-color-scheme:dark){path{fill:#fff}}</style><switch><g><path d="M24.5 9.4H6.7a4.2 4.2 0 00-4.2 4.1v14.8c0 2.3 1.9 4.1 4.2 4.1h17.8c2.3 0 4.2-1.9 4.2-4.1V13.6a4.3 4.3 0 00-4.2-4.2zm-20 4.2c0-1.2 1-2.1 2.2-2.1h17.8c1.2 0 2.2 1 2.2 2.1v2.9H4.5v-2.9zm22.1 14.8c0 1.2-1 2.1-2.2 2.1H6.7c-1.2 0-2.2-1-2.2-2.1v-9.9h22.1v9.9z"/><path d="M31.5 22.4c-.6 0-1-.4-1-1V6.6c0-1.2-1-2.1-2.1-2.1H10c-1.2 0-2.1 1-2.1 2.1 0 .6-.4 1-1 1s-1-.4-1-1c0-2.3 1.9-4.1 4.1-4.1h18.4c2.3 0 4.1 1.9 4.1 4.1v14.8c0 .6-.4 1-1 1zM7.1 15a1 1 0 01-.7-.3 1 1 0 01-.3-.7c0-.3.1-.5.3-.7a1 1 0 011.4 0c.2.1.3.4.3.7 0 .3-.1.5-.3.7-.1.1-.4.3-.7.3zm2.1-1c0-.5.4-1 1-1 .5 0 1 .5 1 1s-.5 1-1 1a1 1 0 01-1-1zm4.1 1a1 1 0 01-.7-.3 1 1 0 01-.3-.7c0-.3.1-.5.3-.7a1 1 0 011.4 0c.2.2.3.4.3.7 0 .3-.1.5-.3.7-.2.1-.4.3-.7.3z"/></g></switch></svg>