<svg height="32" viewBox="0 0 29 32" width="29" xmlns="http://www.w3.org/2000/svg"><path d="m8.828 12.875h6.984q.375 0 .648-.281t.273-.641-.273-.641-.648-.281h-6.984q-.375 0-.648.281t-.273.641.273.641.648.281zm3.485 6.25q1.469 0 2.773-.563t2.289-1.555 1.547-2.289.563-2.766-.563-2.773-1.547-2.289-2.289-1.547-2.773-.563-2.766.563-2.289 1.547-1.555 2.289-.563 2.773.563 2.766 1.555 2.289 2.289 1.555 2.766.563zm0 2.328q-1.953 0-3.68-.742t-3.031-2.047-2.047-3.031-.742-3.68q0-1.969.742-3.688t2.047-3.031 3.031-2.047 3.68-.734q1.969 0 3.688.734t3.031 2.047 2.047 3.031.734 3.688q0 1.953-.734 3.68t-2.047 3.031-3.031 2.047-3.688.742zm12.062 4.281q-.297 0-.586-.109t-.508-.328l-6.313-6.313 2.219-2.156 6.266 6.281q.219.219.328.5t.109.594q0 .656-.43 1.094t-1.086.438z"/></svg>