<svg xmlns="http://www.w3.org/2000/svg" width="25" height="32" version="1.1" viewBox="0 0 25 32"><style>@media (prefers-color-scheme:dark){path{fill:#fff}}</style><path d="M12.5 2.688q-0.547 0-0.906 0.352t-0.359 0.898v15.578l0.156 3.844 0.797-0.281-4.734-5.266-2.234-2.172q-0.156-0.156-0.391-0.25t-0.484-0.094q-0.531 0-0.875 0.359t-0.344 0.875q0 0.5 0.391 0.922l8.047 8.063q0.406 0.438 0.938 0.438t0.938-0.438l8.047-8.063q0.391-0.422 0.391-0.922 0-0.516-0.344-0.875t-0.875-0.359q-0.25 0-0.484 0.094t-0.391 0.25l-2.234 2.172-4.75 5.266 0.813 0.281 0.156-3.844v-15.578q0-0.547-0.359-0.898t-0.906-0.352z"/></svg>