<svg xmlns="http://www.w3.org/2000/svg" xmlns:xlink="http://www.w3.org/1999/xlink" aria-hidden="true" role="img" class="iconify iconify--fluent" width="1em" height="1em" preserveAspectRatio="xMidYMid meet" viewBox="0 0 24 24"><g fill="none"><path d="M21.778 2.223a.75.75 0 0 1 .072.976l-.072.084l-6.223 6.224h5.693a.75.75 0 0 1 .743.65l.007.1a.75.75 0 0 1-.649.744l-.101.007l-7.55-.002l-.016-.002a.727.727 0 0 1-.195-.042l-.098-.046a.747.747 0 0 1-.386-.553l-.007-.105V2.754a.75.75 0 0 1 1.493-.102l.007.102v5.69l6.222-6.221a.749.749 0 0 1 1.06 0zM11.003 13.755v7.504a.75.75 0 0 1-1.494.102l-.007-.102v-5.695L3.28 21.78a.75.75 0 0 1-1.133-.977l.073-.084l6.22-6.214H2.751a.75.75 0 0 1-.743-.648L2 13.755a.75.75 0 0 1 .75-.75l7.554.002l.074.009l.097.023l.053.019l.086.04l.089.058a.761.761 0 0 1 .148.148l.066.106l.041.094l.022.07l.01.055l.007.058v-.008l.005.076z" fill="currentColor"></path></g></svg>