<!-- Generated by IcoMoon.io -->
<svg version="1.1" xmlns="http://www.w3.org/2000/svg" width="29" height="32" viewBox="0 0 29 32">
<style>@media (prefers-color-scheme:dark){path{fill:#fff}}</style>
<path d="M3.125 14.313q0 0.531 0.438 0.938l8.063 8.047q0.406 0.391 0.922 0.391t0.867-0.344 0.352-0.875q0-0.25-0.086-0.484t-0.258-0.391l-2.156-2.234-5.281-4.75-0.281 0.672 4.156 0.297h14.75q0.563 0 0.906-0.359t0.344-0.906-0.344-0.906-0.906-0.359h-14.75l-4.156 0.297 0.281 0.688 5.281-4.766 2.156-2.234q0.172-0.156 0.258-0.391t0.086-0.484q0-0.531-0.352-0.875t-0.867-0.344-0.922 0.391l-8.063 8.047q-0.438 0.406-0.438 0.938z"></path>
</svg>
