<svg xmlns="http://www.w3.org/2000/svg" width="35" height="32" version="1.1" viewBox="0 0 35 32"><title>uni10031Esmall</title><path d="M17.563 21.656q1.844 0 3.352-0.891t2.406-2.406 0.898-3.359q0-1.859-0.898-3.367t-2.406-2.406-3.352-0.898-3.352 0.898-2.406 2.406-0.898 3.367q0 1.844 0.898 3.359t2.406 2.406 3.352 0.891zM17.563 19.547q-1.25 0-2.289-0.609t-1.656-1.641-0.617-2.297 0.617-2.305 1.648-1.648 2.297-0.609q1.25 0 2.289 0.609t1.656 1.648 0.617 2.305-0.617 2.297-1.656 1.641-2.289 0.609zM26.359 12.063q0.656 0 1.125-0.461t0.469-1.117q0-0.672-0.469-1.133t-1.125-0.461-1.125 0.461-0.469 1.133q0 0.656 0.469 1.117t1.125 0.461zM7.109 25.719h20.906q1.984 0 2.984-0.984t1-2.953v-12.781q0-1.969-1-2.945t-2.984-0.977h-2.703q-0.719 0-1.055-0.188t-0.727-0.625l-0.953-1.078q-0.453-0.484-1.023-0.773t-1.523-0.289h-4.953q-0.969 0-1.531 0.289t-1.016 0.773l-0.953 1.078q-0.406 0.438-0.742 0.625t-1.039 0.188h-2.688q-1.984 0-2.984 0.977t-1 2.945v12.781q0 1.969 1 2.953t2.984 0.984zM7.141 23.453q-0.844 0-1.305-0.445t-0.461-1.336v-12.547q0-0.891 0.461-1.344t1.305-0.453h3.25q0.813 0 1.336-0.203t0.977-0.703l0.922-1.047q0.531-0.578 0.938-0.789t1.25-0.211h3.469q0.844 0 1.258 0.211t0.93 0.789l0.938 1.047q0.453 0.5 0.969 0.703t1.344 0.203h3.266q0.844 0 1.305 0.453t0.461 1.344v12.547q0 0.891-0.461 1.336t-1.305 0.445h-20.844z"/></svg>