<svg xmlns="http://www.w3.org/2000/svg" xmlns:xlink="http://www.w3.org/1999/xlink" aria-hidden="true" role="img" class="iconify iconify--fluent" width="1em" height="1em" preserveAspectRatio="xMidYMid meet" viewBox="0 0 24 24"><g fill="none"><path d="M4.397 4.554l.073-.084a.75.75 0 0 1 .976-.073l.084.073L12 10.939l6.47-6.47a.75.75 0 1 1 1.06 1.061L13.061 12l6.47 6.47a.75.75 0 0 1 .072.976l-.073.084a.75.75 0 0 1-.976.073l-.084-.073L12 13.061l-6.47 6.47a.75.75 0 0 1-1.06-1.061L10.939 12l-6.47-6.47a.75.75 0 0 1-.072-.976l.073-.084l-.073.084z" fill="currentColor"></path></g></svg>