<svg xmlns="http://www.w3.org/2000/svg" xmlns:xlink="http://www.w3.org/1999/xlink" width="1em" height="1em" aria-hidden="true" class="iconify iconify--fluent" preserveAspectRatio="xMidYMid meet" role="img" viewBox="0 0 24 24"><g fill="none"><path fill="currentColor" d="M12 2c5.523 0 10 4.478 10 10s-4.477 10-10 10S2 17.522 2 12S6.477 2 12 2zm0 1.667c-4.595 0-8.333 3.738-8.333 8.333c0 4.595 3.738 8.333 8.333 8.333c4.595 0 8.333-3.738 8.333-8.333c0-4.595-3.738-8.333-8.333-8.333zm-.001 10.835a.999.999 0 1 1 0 1.998a.999.999 0 0 1 0-1.998zM11.994 7a.75.75 0 0 1 .744.648l.007.101l.004 4.502a.75.75 0 0 1-1.493.103l-.007-.102l-.004-4.501a.75.75 0 0 1 .75-.751z"/></g></svg>