<svg height="32" viewBox="0 0 34 32" width="34" xmlns="http://www.w3.org/2000/svg"><path d="m3.703 14.25q.297 0 .539-.133t.461-.336l11.938-10.875q.172-.172.391-.172.234 0 .422.172l11.906 10.875q.219.203.469.336t.547.133q.484 0 .836-.289t.352-.789q0-.328-.109-.539t-.313-.398l-12.547-11.422q-.688-.641-1.563-.641t-1.563.641l-12.547 11.422q-.188.188-.305.398t-.117.539q0 .5.352.789t.852.289zm19.235-8.266 3.781 3.141v-7.984q0-.969-.969-.969h-1.828q-.453 0-.719.266t-.266.703v4.844zm-9.485 18.766h7.141v-8.797q0-.984-.984-.984h-5.156q-.453 0-.727.266t-.273.719v8.797zm-4.422 1.453h16.016q1.359 0 2.125-.742t.766-2.086v-13.547h-2.25v12.969q0 1.156-1.125 1.156h-15.063q-1.109 0-1.109-1.156v-12.969h-2.266v13.547q0 1.344.766 2.086t2.141.742z"/></svg>