<!-- Generated by IcoMoon.io -->
<svg version="1.1" xmlns="http://www.w3.org/2000/svg" width="34" height="32" viewBox="0 0 34 32">
<title>uni10039Esmall</title>
<path d="M3.703 14.25q0.297 0 0.539-0.133t0.461-0.336l11.938-10.875q0.172-0.172 0.391-0.172 0.234 0 0.422 0.172l11.906 10.875q0.219 0.203 0.469 0.336t0.547 0.133q0.484 0 0.836-0.289t0.352-0.789q0-0.328-0.109-0.539t-0.313-0.398l-12.547-11.422q-0.688-0.641-1.563-0.641t-1.563 0.641l-12.547 11.422q-0.188 0.188-0.305 0.398t-0.117 0.539q0 0.5 0.352 0.789t0.852 0.289zM22.938 5.984l3.781 3.141v-7.984q0-0.969-0.969-0.969h-1.828q-0.453 0-0.719 0.266t-0.266 0.703v4.844zM13.453 24.75h7.141v-8.797q0-0.984-0.984-0.984h-5.156q-0.453 0-0.727 0.266t-0.273 0.719v8.797zM9.031 26.203h16.016q1.359 0 2.125-0.742t0.766-2.086v-13.547h-2.25v12.969q0 1.156-1.125 1.156h-15.063q-1.109 0-1.109-1.156v-12.969h-2.266v13.547q0 1.344 0.766 2.086t2.141 0.742z"></path>
</svg>
