<svg xmlns="http://www.w3.org/2000/svg" width="40" height="32" version="1.1" viewBox="0 0 40 32"><title>uni100586small</title><path d="M11.453 21.953q1.453 0 2.727-0.555t2.234-1.523 1.508-2.242 0.547-2.695q0-1.922-0.953-3.516t-2.539-2.547-3.523-0.953q-1.953 0-3.547 0.953t-2.539 2.547-0.945 3.516 0.945 3.516 2.539 2.547 3.547 0.953zM11.453 19.859q-1.359 0-2.477-0.664t-1.781-1.781-0.664-2.477 0.664-2.477 1.781-1.781 2.477-0.664 2.477 0.664 1.781 1.781 0.664 2.477-0.664 2.477-1.773 1.781-2.484 0.664zM28.484 21.953q1.938 0 3.531-0.953t2.539-2.547 0.945-3.516-0.945-3.516-2.539-2.547-3.531-0.953q-1.953 0-3.539 0.953t-2.531 2.547-0.945 3.516 0.945 3.516 2.531 2.547 3.539 0.953zM28.484 19.859q-1.375 0-2.492-0.664t-1.773-1.781-0.656-2.477 0.656-2.477 1.773-1.781 2.492-0.664q1.344 0 2.469 0.664t1.789 1.781 0.664 2.477-0.664 2.477-1.789 1.781-2.469 0.664zM36.922 13.516h-2.25q-0.453 0-0.641 0.227t-0.188 0.617v0.516q0 0.375 0.188 0.617t0.641 0.242h2.25q0.438 0 0.625-0.242t0.188-0.617v-0.516q0-0.844-0.813-0.844zM5.25 13.516h-2.234q-0.828 0-0.828 0.844v0.516q0 0.375 0.188 0.617t0.641 0.242h2.234q0.469 0 0.648-0.242t0.18-0.617v-0.516q0-0.391-0.18-0.617t-0.648-0.227zM19.969 12.906q-0.547 0-1.172 0.117t-1.109 0.414l0.203 1.938q0.484-0.266 1.047-0.375t1.031-0.109 1.031 0.109 1.047 0.375l0.203-1.938q-0.484-0.297-1.117-0.414t-1.164-0.117z"/></svg>