<svg height="32" viewBox="0 0 40 32" width="40" xmlns="http://www.w3.org/2000/svg"><path d="m11.453 21.953q1.453 0 2.727-.555t2.234-1.523 1.508-2.242.547-2.695q0-1.922-.953-3.516t-2.539-2.547-3.523-.953q-1.953 0-3.547.953t-2.539 2.547-.945 3.516.945 3.516 2.539 2.547 3.547.953zm0-2.094q-1.359 0-2.477-.664t-1.781-1.781-.664-2.477.664-2.477 1.781-1.781 2.477-.664 2.477.664 1.781 1.781.664 2.477-.664 2.477-1.773 1.781-2.484.664zm17.031 2.094q1.938 0 3.531-.953t2.539-2.547.945-3.516-.945-3.516-2.539-2.547-3.531-.953q-1.953 0-3.539.953t-2.531 2.547-.945 3.516.945 3.516 2.531 2.547 3.539.953zm0-2.094q-1.375 0-2.492-.664t-1.773-1.781-.656-2.477.656-2.477 1.773-1.781 2.492-.664q1.344 0 2.469.664t1.789 1.781.664 2.477-.664 2.477-1.789 1.781-2.469.664zm8.438-6.343h-2.25q-.453 0-.641.227t-.188.617v.516q0 .375.188.617t.641.242h2.25q.438 0 .625-.242t.188-.617v-.516q0-.844-.813-.844zm-31.672 0h-2.234q-.828 0-.828.844v.516q0 .375.188.617t.641.242h2.234q.469 0 .648-.242t.18-.617v-.516q0-.391-.18-.617t-.648-.227zm14.719-.61q-.547 0-1.172.117t-1.109.414l.203 1.938q.484-.266 1.047-.375t1.031-.109 1.031.109 1.047.375l.203-1.938q-.484-.297-1.117-.414t-1.164-.117z"/></svg>