<!-- Generated by IcoMoon.io -->
<svg version="1.1" xmlns="http://www.w3.org/2000/svg" width="27" height="32" viewBox="0 0 27 32">
<title>uni1003A2small</title>
<path d="M7.844 26.047h11.078q0.766 0 1.375-0.219l-1.891-1.891q-0.078 0.016-0.148 0.016h-10.32q-0.344 0-0.516-0.18t-0.172-0.586v-8.547q0-0.391 0.172-0.57t0.516-0.18h0.422l-1.875-1.875q-1.484 0.594-1.484 2.781v8.25q0 1.531 0.711 2.266t2.133 0.734zM23.344 26.625q0.313 0.313 0.766 0.313t0.75-0.313q0.313-0.328 0.32-0.766t-0.32-0.766l-21.094-21.078q-0.313-0.313-0.766-0.32t-0.766 0.32q-0.313 0.297-0.313 0.75t0.313 0.766zM13.375 1.891q-1.75 0-3.344 0.93t-2.359 2.867l1.766 1.781q0.297-1.734 1.43-2.586t2.508-0.852q1.063 0 1.984 0.492t1.492 1.492 0.57 2.5v3.281h-3.641l2.109 2.094h2.938q0.344 0 0.516 0.18t0.172 0.57v2.891l2.25 2.266v-5q0-1.313-0.523-2.039t-1.57-0.898v-3.016q0-2.406-0.922-3.945t-2.359-2.273-3.016-0.734z"></path>
</svg>
