<svg height="32" viewBox="0 0 27 32" width="27" xmlns="http://www.w3.org/2000/svg"><path d="m7.844 26.047h11.078q.766 0 1.375-.219l-1.891-1.891q-.078.016-.148.016h-10.32q-.344 0-.516-.18t-.172-.586v-8.547q0-.391.172-.57t.516-.18h.422l-1.875-1.875q-1.484.594-1.484 2.781v8.25q0 1.531.711 2.266t2.133.734zm15.5.578q.313.313.766.313t.75-.313q.313-.328.32-.766t-.32-.766l-21.094-21.078q-.313-.313-.766-.32t-.766.32q-.313.297-.313.75t.313.766zm-9.969-24.734q-1.75 0-3.344.93t-2.359 2.867l1.766 1.781q.297-1.734 1.43-2.586t2.508-.852q1.063 0 1.984.492t1.492 1.492.57 2.5v3.281h-3.641l2.109 2.094h2.938q.344 0 .516.18t.172.57v2.891l2.25 2.266v-5q0-1.313-.523-2.039t-1.57-.898v-3.016q0-2.406-.922-3.945t-2.359-2.273-3.016-.734z"/></svg>