<svg xmlns="http://www.w3.org/2000/svg" width="27" height="32" version="1.1" viewBox="0 0 27 32"><title>uni1003A3small</title><path d="M7.344 25.391h12.125q0.125 0 0.25-0.008t0.25-0.023l-14.078-14.078q-0.516 0.281-0.766 0.836t-0.25 1.398v9.266q0 1.344 0.617 1.977t1.852 0.633zM13.375 0.484q-1.328 0-2.555 0.5t-2.164 1.516-1.422 2.578q-0.016 0.016-0.016 0.031t-0.016 0.047l1.859 1.859q0-0.047 0.008-0.094t0.008-0.078q0.156-1.375 0.766-2.313t1.531-1.422 2-0.484q1.203 0 2.195 0.586t1.578 1.719 0.586 2.789v3.188l-4.766 0.016 8.906 8.906v-6.328q0-1.172-0.469-1.805t-1.422-0.758v-2.891q0-2.563-0.938-4.242t-2.445-2.5-3.227-0.82zM23.344 26.625q0.313 0.313 0.766 0.313t0.75-0.313q0.313-0.328 0.32-0.766t-0.32-0.766l-21.094-21.078q-0.313-0.313-0.766-0.32t-0.766 0.32q-0.313 0.297-0.313 0.75t0.313 0.766z"/></svg>