<svg xmlns="http://www.w3.org/2000/svg" width="32" height="32" version="1.1" viewBox="0 0 32 32"><title>uni100263small</title><path d="M15.406 19.328l1.828-1.859q-1.094-0.156-1.844-0.5t-1.281-0.891q-1.047-1.047-1.398-2.305t-0.008-2.508 1.375-2.281l4-4q1.031-1.047 2.289-1.391t2.516 0 2.305 1.391q1.047 1.063 1.398 2.32t0 2.508-1.383 2.281l-2.109 2.109q0.297 0.688 0.375 1.422t0 1.391l3.422-3.422q1.5-1.5 2.008-3.32t0-3.641-2.023-3.336q-1.516-1.531-3.336-2.031t-3.641 0.008-3.32 2.008l-4.188 4.203q-1.5 1.5-2.008 3.313t0 3.641 2.023 3.344q0.516 0.516 1.219 0.906t1.781 0.641zM16.563 9.094l-1.844 1.875q1.109 0.156 1.859 0.5t1.281 0.891q1.047 1.047 1.398 2.305t0.008 2.508-1.375 2.281l-4 4q-1.047 1.047-2.297 1.391t-2.508 0-2.305-1.391q-1.047-1.063-1.398-2.32t-0.008-2.508 1.391-2.281l2.109-2.109q-0.297-0.688-0.375-1.422t0-1.391l-3.422 3.422q-1.516 1.5-2.016 3.32t0 3.641 2.031 3.336q1.516 1.516 3.336 2.023t3.641 0 3.32-2.008l4.188-4.203q1.5-1.5 2.008-3.313t0-3.641-2.023-3.344q-0.516-0.516-1.227-0.906t-1.773-0.656z"/></svg>