<svg height="32" viewBox="0 0 30 32" width="30" xmlns="http://www.w3.org/2000/svg"><path d="m17.828 26.063h6.484q1.078 0 1.672-.594t.594-1.672v-6.484q0-.547-.367-.922t-.93-.375q-.547 0-.914.367t-.367.93v.406l.297 4.344-2.938-3.125-3.641-3.672q-.359-.375-.906-.375-.594 0-.992.367t-.398.961q0 .281.102.531t.289.438l3.641 3.641 3.141 2.938-4.359-.281h-.406q-.563 0-.938.359t-.391.922q0 .563.383.93t.945.367zm-13.406-13.454q.563 0 .922-.367t.359-.93v-.406l-.281-4.344 2.938 3.125 3.625 3.672q.359.375.906.375.594 0 .992-.367t.398-.961q0-.281-.102-.531t-.289-.438l-3.641-3.641-3.141-2.938 4.375.281h.391q.563 0 .945-.359t.383-.922-.383-.93-.945-.367h-6.484q-1.078 0-1.672.594t-.594 1.672v6.484q0 .547.367.922t.93.375z"/></svg>