<svg xmlns="http://www.w3.org/2000/svg" width="30" height="32" version="1.1" viewBox="0 0 30 32"><title>uni10014Asmall</title><path d="M17.828 26.063h6.484q1.078 0 1.672-0.594t0.594-1.672v-6.484q0-0.547-0.367-0.922t-0.93-0.375q-0.547 0-0.914 0.367t-0.367 0.93v0.406l0.297 4.344-2.938-3.125-3.641-3.672q-0.359-0.375-0.906-0.375-0.594 0-0.992 0.367t-0.398 0.961q0 0.281 0.102 0.531t0.289 0.438l3.641 3.641 3.141 2.938-4.359-0.281h-0.406q-0.563 0-0.938 0.359t-0.391 0.922q0 0.563 0.383 0.93t0.945 0.367zM4.422 12.609q0.563 0 0.922-0.367t0.359-0.93v-0.406l-0.281-4.344 2.938 3.125 3.625 3.672q0.359 0.375 0.906 0.375 0.594 0 0.992-0.367t0.398-0.961q0-0.281-0.102-0.531t-0.289-0.438l-3.641-3.641-3.141-2.938 4.375 0.281h0.391q0.563 0 0.945-0.359t0.383-0.922-0.383-0.93-0.945-0.367h-6.484q-1.078 0-1.672 0.594t-0.594 1.672v6.484q0 0.547 0.367 0.922t0.93 0.375z"/></svg>