<svg xmlns="http://www.w3.org/2000/svg" width="25" height="32" version="1.1" viewBox="0 0 25 32"><title>uni1002B2small</title><path d="M7.234 26.703h10.938q0.438 0 0.75-0.305t0.313-0.758q0-0.438-0.313-0.742t-0.75-0.305h-10.938q-0.438 0-0.742 0.305t-0.305 0.742q0 0.453 0.305 0.758t0.742 0.305zM11.656 25.188h2.109v-3.516h-2.109v3.516zM17.266 21.016l-1.5-1.484q-0.672 0.281-1.438 0.445t-1.625 0.164q-2.078 0-3.617-0.867t-2.391-2.438-0.852-3.664v-2.438q0-0.453-0.305-0.758t-0.742-0.305-0.75 0.305-0.313 0.758v2.531q0 1.969 0.656 3.594t1.859 2.797 2.844 1.805 3.609 0.633q1.297 0 2.438-0.273t2.125-0.805zM12.703 17.797q0.594 0 1.188-0.141l-2.188-2.188h-0.094q-0.344-0.141-0.617-0.414t-0.43-0.664l-0.016-0.078-2.453-2.453v0.984q0 1.469 0.594 2.586t1.633 1.742 2.383 0.625zM21.703 23.266q0.313 0.328 0.766 0.328t0.75-0.328q0.313-0.313 0.32-0.758t-0.32-0.758l-19.188-19.172q-0.313-0.313-0.758-0.313t-0.773 0.313q-0.297 0.313-0.297 0.766t0.297 0.766zM19.219 15.578l1.641 1.641q0.813-1.797 0.813-3.953v-2.531q0-0.453-0.305-0.758t-0.742-0.305-0.75 0.305-0.313 0.758v2.438q0 1.281-0.344 2.406zM17.313 5.25q0-1.469-0.586-2.586t-1.625-1.742-2.398-0.625q-1.828 0-3.063 1.133t-1.484 2.992v0.109l2.047 2.031v-1.313q0-1.344 0.695-2.109t1.805-0.766q1.125 0 1.813 0.766t0.688 2.109v6.313l2.063 2.063q0.016-0.188 0.031-0.383t0.016-0.398v-7.594z"/></svg>