<!-- Generated by IcoMoon.io -->
<svg version="1.1" xmlns="http://www.w3.org/2000/svg" width="25" height="32" viewBox="0 0 25 32">
<title>uni1002B0small</title>
<path d="M7.234 26.703h10.938q0.438 0 0.742-0.305t0.305-0.758q0-0.438-0.305-0.742t-0.742-0.305h-10.938q-0.438 0-0.75 0.305t-0.313 0.742q0 0.453 0.313 0.758t0.75 0.305zM11.641 25.188h2.109v-3.516h-2.109v3.516zM12.703 22.094q1.969 0 3.609-0.633t2.844-1.805 1.859-2.797 0.656-3.594v-2.531q0-0.453-0.313-0.758t-0.75-0.305-0.742 0.305-0.305 0.758v2.438q0 2.094-0.852 3.664t-2.391 2.438-3.617 0.867-3.617-0.867-2.391-2.438-0.852-3.664v-2.438q0-0.453-0.305-0.758t-0.758-0.305q-0.438 0-0.742 0.305t-0.305 0.758v2.531q0 1.969 0.656 3.594t1.852 2.797 2.836 1.805 3.625 0.633zM12.703 17.797q1.359 0 2.391-0.625t1.625-1.742 0.594-2.586v-7.594q0-1.469-0.594-2.586t-1.625-1.742-2.391-0.625-2.398 0.625-1.625 1.742-0.586 2.586v7.594q0 1.469 0.586 2.586t1.625 1.742 2.398 0.625zM12.703 15.719q-1.125 0-1.813-0.766t-0.688-2.109v-7.594q0-1.344 0.688-2.109t1.813-0.766q1.109 0 1.805 0.766t0.695 2.109v7.594q0 1.344-0.695 2.109t-1.805 0.766z"></path>
</svg>
