<svg height="32" viewBox="0 0 25 32" width="25" xmlns="http://www.w3.org/2000/svg"><path d="m7.234 26.703h10.938q.438 0 .742-.305t.305-.758q0-.438-.305-.742t-.742-.305h-10.938q-.438 0-.75.305t-.313.742q0 .453.313.758t.75.305zm4.407-1.515h2.109v-3.516h-2.109zm1.062-3.094q1.969 0 3.609-.633t2.844-1.805 1.859-2.797.656-3.594v-2.531q0-.453-.313-.758t-.75-.305-.742.305-.305.758v2.438q0 2.094-.852 3.664t-2.391 2.438-3.617.867-3.617-.867-2.391-2.438-.852-3.664v-2.438q0-.453-.305-.758t-.758-.305q-.438 0-.742.305t-.305.758v2.531q0 1.969.656 3.594t1.852 2.797 2.836 1.805 3.625.633zm0-4.297q1.359 0 2.391-.625t1.625-1.742.594-2.586v-7.594q0-1.469-.594-2.586t-1.625-1.742-2.391-.625-2.398.625-1.625 1.742-.586 2.586v7.594q0 1.469.586 2.586t1.625 1.742 2.398.625zm0-2.078q-1.125 0-1.813-.766t-.688-2.109v-7.594q0-1.344.688-2.109t1.813-.766q1.109 0 1.805.766t.695 2.109v7.594q0 1.344-.695 2.109t-1.805.766z"/></svg>