<!-- Generated by IcoMoon.io -->
<svg version="1.1" xmlns="http://www.w3.org/2000/svg" width="29" height="32" viewBox="0 0 29 32">
<title>uni1001B9small</title>
<path d="M4.375 13.766q0-1.828 0.586-3.555t1.68-3.18 2.609-2.469q-0.297 0.813-0.438 1.711t-0.141 1.914q0 3.859 1.492 6.602t4.297 4.195 6.727 1.453q0.906 0 1.68-0.109t1.539-0.375q-0.922 1.453-2.336 2.508t-3.172 1.617-3.68 0.563q-2.344 0-4.328-0.805t-3.445-2.266-2.266-3.453-0.805-4.352zM21.531 18.406q-3.328 0-5.75-1.266t-3.727-3.609-1.305-5.563q0-1.391 0.211-2.555t0.539-1.773q0.156-0.297 0.195-0.469t0.039-0.391q0-0.328-0.281-0.656t-0.719-0.328q-0.078 0-0.266 0.031t-0.484 0.141q-2.281 0.938-4.039 2.75t-2.758 4.18-1 4.961q0 2.813 0.961 5.18t2.695 4.109 4.102 2.703 5.18 0.961q2.719 0 5.008-0.891t4.016-2.563 2.727-4q0.125-0.281 0.164-0.492t0.039-0.32q0-0.438-0.305-0.695t-0.602-0.258q-0.172 0-0.32 0.023t-0.398 0.117q-0.797 0.313-1.813 0.492t-2.109 0.18z"></path>
</svg>
