<svg height="32" viewBox="0 0 32 32" width="32" xmlns="http://www.w3.org/2000/svg"><path d="m10.438 14.328q0 .781-.578 1.359t-1.359.578q-.797 0-1.367-.578t-.57-1.359q0-.766.57-1.359t1.367-.594q.781 0 1.359.594t.578 1.359zm6.281 0q0 .781-.578 1.359t-1.359.578-1.352-.578-.57-1.359q0-.766.57-1.359t1.352-.594 1.359.594.578 1.359zm6.297 0q0 .781-.57 1.359t-1.367.578q-.781 0-1.359-.578t-.578-1.359q0-.766.578-1.359t1.359-.594q.797 0 1.367.594t.57 1.359zm-8.219 12.594q2.594 0 4.875-.984t4.023-2.734 2.734-4.031.992-4.859-.992-4.859-2.742-4.023-4.031-2.734-4.875-.992q-2.578 0-4.859.992t-4.016 2.734-2.727 4.023-.992 4.859.992 4.859 2.734 4.031 4.023 2.734 4.859.984z"/></svg>