<svg xmlns="http://www.w3.org/2000/svg" width="32" height="32" version="1.1" viewBox="0 0 32 32"><title>uni100362small</title><path d="M10.438 14.328q0 0.781-0.578 1.359t-1.359 0.578q-0.797 0-1.367-0.578t-0.57-1.359q0-0.766 0.57-1.359t1.367-0.594q0.781 0 1.359 0.594t0.578 1.359zM16.719 14.328q0 0.781-0.578 1.359t-1.359 0.578-1.352-0.578-0.57-1.359q0-0.766 0.57-1.359t1.352-0.594 1.359 0.594 0.578 1.359zM23.016 14.328q0 0.781-0.57 1.359t-1.367 0.578q-0.781 0-1.359-0.578t-0.578-1.359q0-0.766 0.578-1.359t1.359-0.594q0.797 0 1.367 0.594t0.57 1.359zM14.797 26.922q2.594 0 4.875-0.984t4.023-2.734 2.734-4.031 0.992-4.859-0.992-4.859-2.742-4.023-4.031-2.734-4.875-0.992q-2.578 0-4.859 0.992t-4.016 2.734-2.727 4.023-0.992 4.859 0.992 4.859 2.734 4.031 4.023 2.734 4.859 0.984z"/></svg>