<!-- Generated by IcoMoon.io -->
<svg version="1.1" xmlns="http://www.w3.org/2000/svg" width="22" height="32" viewBox="0 0 22 32">
<title>uni100283small</title>
<path d="M4.719 24.734q0.406 0 0.773-0.141t0.758-0.375l14.063-8.094q0.859-0.5 1.188-0.883t0.328-0.914-0.328-0.914-1.188-0.883l-14.063-8.094q-0.391-0.234-0.758-0.375t-0.773-0.141q-0.734 0-1.164 0.523t-0.43 1.398v16.969q0 0.875 0.43 1.398t1.164 0.523zM5.469 22.047q-0.094 0-0.094-0.094v-15.25q0-0.094 0.094-0.094 0.031 0 0.109 0.031l13.156 7.609q0.031 0.016 0.047 0.031t0.016 0.047-0.016 0.047-0.047 0.031l-13.156 7.609q-0.078 0.031-0.109 0.031z"></path>
</svg>
