<!-- Generated by IcoMoon.io -->
<svg version="1.1" xmlns="http://www.w3.org/2000/svg" width="28" height="32" viewBox="0 0 28 32">
<title>uni100269small</title>
<path d="M6.344 25.953h15.125q3.219 0 3.219-2.047 0-1.203-0.734-2.578t-2.133-2.586-3.398-1.984-4.516-0.773-4.508 0.773-3.398 1.984-2.141 2.586-0.734 2.578q0 2.047 3.219 2.047zM5.641 23.844q-0.125 0-0.195-0.047t-0.070-0.172q0-0.688 0.555-1.625t1.641-1.828 2.672-1.484 3.664-0.594 3.664 0.594 2.672 1.484 1.641 1.828 0.555 1.625q0 0.125-0.063 0.172t-0.203 0.047h-16.531zM13.906 14.547q1.469 0 2.695-0.789t1.953-2.109 0.727-2.914-0.719-2.875-1.938-2.031-2.719-0.75q-1.469 0-2.695 0.766t-1.953 2.055-0.727 2.867 0.734 2.898 1.953 2.102 2.688 0.781zM13.906 12.453q-0.828 0-1.539-0.492t-1.148-1.328-0.438-1.867 0.43-1.836 1.141-1.273 1.555-0.469q0.859 0 1.57 0.461t1.133 1.266 0.422 1.82q0 1.031-0.43 1.875t-1.141 1.344-1.555 0.5z"></path>
</svg>
