<svg height="32" viewBox="0 0 28 32" width="28" xmlns="http://www.w3.org/2000/svg"><path d="m6.344 25.953h15.125q3.219 0 3.219-2.047 0-1.203-.734-2.578t-2.133-2.586-3.398-1.984-4.516-.773-4.508.773-3.398 1.984-2.141 2.586-.734 2.578q0 2.047 3.219 2.047zm-.703-2.109q-.125 0-.195-.047t-.07-.172q0-.688.555-1.625t1.641-1.828 2.672-1.484 3.664-.594 3.664.594 2.672 1.484 1.641 1.828.555 1.625q0 .125-.063.172t-.203.047h-16.531zm8.265-9.297q1.469 0 2.695-.789t1.953-2.109.727-2.914-.719-2.875-1.938-2.031-2.719-.75q-1.469 0-2.695.766t-1.953 2.055-.727 2.867.734 2.898 1.953 2.102 2.688.781zm0-2.094q-.828 0-1.539-.492t-1.148-1.328-.438-1.867.43-1.836 1.141-1.273 1.555-.469q.859 0 1.57.461t1.133 1.266.422 1.82q0 1.031-.43 1.875t-1.141 1.344-1.555.5z"/></svg>