<!-- Generated by IcoMoon.io -->
<svg version="1.1" xmlns="http://www.w3.org/2000/svg" width="29" height="32" viewBox="0 0 29 32">
<title>uni1003A6small</title>
<path d="M14.719 29.078q0.125 0 0.328-0.297t0.406-0.82 0.344-1.211 0.141-1.469v-6.406h-2.422v6.406q0 0.781 0.141 1.469t0.344 1.211 0.398 0.82 0.32 0.297zM6.906 20.031h15.625q0.891 0 1.414-0.516t0.523-1.359q0-1.359-0.727-2.664t-2.039-2.367-3.094-1.695-3.891-0.633q-2.094 0-3.875 0.633t-3.094 1.695-2.039 2.367-0.727 2.664q0 0.844 0.523 1.359t1.398 0.516zM7.5 17.922q-0.406 0-0.313-0.484 0.156-0.984 1.078-2.055t2.547-1.813 3.906-0.742 3.906 0.742 2.555 1.813 1.086 2.055q0.078 0.484-0.328 0.484h-14.438zM6.438 1.609q0 0.656 0.5 1.281 0.469 0.609 1.492 1.422t2.242 1.625l-0.453 6.516h2.234l0.453-7.578q0.016-0.234-0.141-0.313-0.969-0.484-1.695-0.938t-1.156-0.781-0.492-0.406q-0.094-0.125-0.039-0.195t0.148-0.070h10.391q0.078 0 0.133 0.070t-0.023 0.195q-0.063 0.078-0.492 0.406t-1.164 0.781-1.703 0.938q-0.156 0.078-0.125 0.313l0.453 7.578h2.234l-0.469-6.516q1.234-0.813 2.25-1.625t1.484-1.422q0.516-0.625 0.516-1.281 0-0.594-0.422-0.992t-1.109-0.398h-13.516q-0.688 0-1.109 0.398t-0.422 0.992z"></path>
</svg>
