<!-- Generated by IcoMoon.io -->
<svg version="1.1" xmlns="http://www.w3.org/2000/svg" width="34" height="32" viewBox="0 0 34 32">
<title>uni10039Asmall</title>
<path d="M6.922 24.281h2.484v-2.109h-2.516q-0.734 0-1.125-0.391t-0.391-1.125v-11.672q0-0.734 0.391-1.125t1.125-0.391h20.484q0.719 0 1.109 0.391t0.391 1.125v11.672q0 0.734-0.391 1.125t-1.109 0.391h-2.313v2.109h2.281q1.844 0 2.82-0.945t0.977-2.789v-11.453q0-1.844-0.977-2.789t-2.82-0.945h-20.422q-1.75 0-2.773 0.945t-1.023 2.789v11.453q0 1.844 0.969 2.789t2.828 0.945zM13.078 23.203h8.141q0.359 0 0.602-0.234t0.242-0.594-0.242-0.609-0.602-0.25h-8.141q-0.375 0-0.625 0.25t-0.25 0.609 0.25 0.594 0.625 0.234zM10.391 27.891h13.484q1.125 0 1.703-0.539t0.578-1.742v-10.766q0-1.188-0.578-1.734t-1.703-0.547h-13.484q-1.063 0-1.672 0.547t-0.609 1.734v10.766q0 1.203 0.578 1.742t1.703 0.539zM11.125 25.797q-0.359 0-0.563-0.195t-0.203-0.586v-9.594q0-0.375 0.203-0.563t0.563-0.188h12.016q0.375 0 0.563 0.188t0.188 0.563v9.594q0 0.391-0.188 0.586t-0.563 0.195h-12.016zM13.078 18.953h8.141q0.359 0 0.602-0.25t0.242-0.609-0.242-0.594-0.602-0.234h-8.141q-0.375 0-0.625 0.234t-0.25 0.594 0.25 0.609 0.625 0.25zM8 6.625h2.172v-1.906q0-0.688 0.375-1.055t1.078-0.367h11.016q0.703 0 1.078 0.367t0.375 1.055v1.875h2.156v-1.703q0-1.875-0.93-2.75t-2.711-0.875h-10.953q-1.672 0-2.664 0.875t-0.992 2.75v1.734z"></path>
</svg>
