<svg xmlns="http://www.w3.org/2000/svg" width="29" height="32" version="1.1" viewBox="0 0 29 32"><title>uni100582small</title><path d="M18 13.344h5.391q1.266 0 1.883-0.641t0.617-1.922v-5.281q0-1.281-0.617-1.922t-1.883-0.641h-5.391q-1.25 0-1.875 0.641t-0.625 1.922v5.281q0 1.281 0.625 1.922t1.875 0.641zM5.625 25.719h5.391q1.25 0 1.875-0.633t0.625-1.93v-5.281q0-1.281-0.625-1.914t-1.875-0.633h-5.391q-1.25 0-1.875 0.633t-0.625 1.914v5.281q0 1.297 0.625 1.93t1.875 0.633zM5.641 23.75q-0.563 0-0.563-0.578v-5.297q0-0.594 0.563-0.594h5.344q0.578 0 0.578 0.594v5.297q0 0.578-0.578 0.578h-5.344zM7.234 21.844h2.156q0.266 0 0.266-0.297v-2.078q0-0.281-0.266-0.281h-2.156q-0.25 0-0.25 0.281v2.078q0 0.297 0.25 0.297zM16.359 25.094h2.156q0.266 0 0.266-0.297v-2.078q0-0.281-0.266-0.281h-2.156q-0.25 0-0.25 0.281v2.078q0 0.297 0.25 0.297zM5.625 13.344h5.391q1.25 0 1.875-0.641t0.625-1.922v-5.281q0-1.281-0.625-1.922t-1.875-0.641h-5.391q-1.25 0-1.875 0.641t-0.625 1.922v5.281q0 1.281 0.625 1.922t1.875 0.641zM5.641 11.375q-0.563 0-0.563-0.594v-5.297q0-0.578 0.563-0.578h5.344q0.578 0 0.578 0.578v5.297q0 0.594-0.578 0.594h-5.344zM7.234 9.469h2.156q0.266 0 0.266-0.297v-2.078q0-0.281-0.266-0.281h-2.156q-0.25 0-0.25 0.281v2.078q0 0.297 0.25 0.297zM16.359 18.594h2.156q0.266 0 0.266-0.297v-2.078q0-0.281-0.266-0.281h-2.156q-0.25 0-0.25 0.281v2.078q0 0.297 0.25 0.297zM22.859 25.094h2.156q0.266 0 0.266-0.297v-2.078q0-0.281-0.266-0.281h-2.156q-0.25 0-0.25 0.281v2.078q0 0.297 0.25 0.297zM19.641 21.844h2.156q0.266 0 0.266-0.297v-2.078q0-0.281-0.266-0.281h-2.156q-0.25 0-0.25 0.281v2.078q0 0.297 0.25 0.297zM22.859 18.594h2.156q0.266 0 0.266-0.297v-2.078q0-0.281-0.266-0.281h-2.156q-0.25 0-0.25 0.281v2.078q0 0.297 0.25 0.297zM18.031 11.375q-0.578 0-0.578-0.594v-5.297q0-0.578 0.578-0.578h5.344q0.563 0 0.563 0.578v5.297q0 0.594-0.563 0.594h-5.344zM19.703 9.469h2.156q0.266 0 0.266-0.297v-2.078q0-0.281-0.266-0.281h-2.156q-0.25 0-0.25 0.281v2.078q0 0.297 0.25 0.297z"/></svg>