<!-- Generated by IcoMoon.io -->
<svg version="1.1" xmlns="http://www.w3.org/2000/svg" width="32" height="32" viewBox="0 0 32 32">
<style>@media (prefers-color-scheme:dark){path{fill:#fff}}</style>
<path d="M14.797 26.922q2.594 0 4.875-0.984t4.023-2.734 2.734-4.031 0.992-4.859q0-2.031-0.633-3.891t-1.773-3.43-2.672-2.742q-0.453-0.359-0.961-0.273t-0.773 0.523-0.148 0.891 0.539 0.781q1.828 1.391 2.922 3.516t1.109 4.625q0 2.141-0.789 3.992t-2.188 3.258-3.258 2.195-4 0.789q-2.125 0-3.977-0.789t-3.25-2.195-2.188-3.258-0.789-3.992q0-2.125 0.781-3.984t2.18-3.258 3.25-2.195 3.977-0.797v-2.375q-2.578 0-4.859 0.992t-4.016 2.734-2.727 4.023-0.992 4.859 0.992 4.859 2.734 4.031 4.023 2.734 4.859 0.984zM12.375 0.281v5.688q0 0.734 0.422 0.914t0.969-0.211l3.969-2.781q0.453-0.328 0.461-0.758t-0.461-0.758l-3.953-2.781q-0.563-0.406-0.984-0.227t-0.422 0.914z"></path>
</svg>
