<svg height="32" viewBox="0 0 30 32" width="30" xmlns="http://www.w3.org/2000/svg"><path d="m5.531 13.234h6.484q1.078 0 1.672-.594t.594-1.672v-6.469q0-.563-.367-.938t-.93-.375-.922.375-.359.938v.391l.281 4.359-2.938-3.141-3.625-3.656q-.359-.375-.906-.375-.594 0-.992.359t-.398.953q0 .281.102.531t.289.453l3.641 3.625 3.141 2.938-4.359-.266h-.406q-.563 0-.945.352t-.383.914.383.93.945.367zm11.547 12.25q.547 0 .906-.375t.359-.938v-.438l-.281-4.344 2.938 3.125 3.656 3.688q.359.375.906.375.594 0 .992-.359t.398-.953q0-.281-.102-.531t-.289-.453l-3.656-3.656-3.141-2.938 4.359.281h.438q.563 0 .938-.359t.375-.922-.375-.922-.938-.359h-6.531q-1.078 0-1.672.594t-.594 1.672v6.5q0 .563.375.938t.938.375z"/></svg>