<!-- Generated by IcoMoon.io -->
<svg version="1.1" xmlns="http://www.w3.org/2000/svg" width="30" height="32" viewBox="0 0 30 32">
<title>uni10014Bsmall</title>
<path d="M5.531 13.234h6.484q1.078 0 1.672-0.594t0.594-1.672v-6.469q0-0.563-0.367-0.938t-0.93-0.375-0.922 0.375-0.359 0.938v0.391l0.281 4.359-2.938-3.141-3.625-3.656q-0.359-0.375-0.906-0.375-0.594 0-0.992 0.359t-0.398 0.953q0 0.281 0.102 0.531t0.289 0.453l3.641 3.625 3.141 2.938-4.359-0.266h-0.406q-0.563 0-0.945 0.352t-0.383 0.914 0.383 0.93 0.945 0.367zM17.078 25.484q0.547 0 0.906-0.375t0.359-0.938v-0.438l-0.281-4.344 2.938 3.125 3.656 3.688q0.359 0.375 0.906 0.375 0.594 0 0.992-0.359t0.398-0.953q0-0.281-0.102-0.531t-0.289-0.453l-3.656-3.656-3.141-2.938 4.359 0.281h0.438q0.563 0 0.938-0.359t0.375-0.922-0.375-0.922-0.938-0.359h-6.531q-1.078 0-1.672 0.594t-0.594 1.672v6.5q0 0.563 0.375 0.938t0.938 0.375z"></path>
</svg>
