<svg xmlns="http://www.w3.org/2000/svg" width="27" height="32" version="1.1" viewBox="0 0 27 32"><style>@media (prefers-color-scheme:dark){path{fill:#fff}}</style><path d="M7.578 25.906h11.609q1.188 0 1.773-0.609t0.586-1.906v-8.906q0-1.281-0.586-1.898t-1.773-0.617l-11.313 0.031q-1.203 0-1.938 0.609t-0.734 1.875v8.906q0 1.297 0.586 1.906t1.789 0.609zM7.078 12.922h2.266v-4.406q0-1.5 0.57-2.5t1.492-1.492 1.969-0.492 1.969 0.492 1.5 1.492 0.578 2.5v4.406h2.25v-4.078q0-2.406-0.922-3.945t-2.367-2.273-3.008-0.734-3.008 0.734-2.367 2.273-0.922 3.945v4.078z"/></svg>