<!-- Generated by IcoMoon.io -->
<svg version="1.1" xmlns="http://www.w3.org/2000/svg" width="27" height="32" viewBox="0 0 27 32">
<style>@media (prefers-color-scheme:dark){path{fill:#fff}}</style>
<path d="M7.844 26.047h11.078q1.422 0 2.133-0.734t0.711-2.266v-8.25q0-1.531-0.711-2.266t-2.133-0.734h-11.078q-1.422 0-2.133 0.734t-0.711 2.266v8.25q0 1.531 0.711 2.266t2.133 0.734zM7.938 23.953q-0.344 0-0.516-0.18t-0.172-0.586v-8.547q0-0.391 0.172-0.57t0.516-0.18h10.891q0.344 0 0.516 0.18t0.172 0.57v8.547q0 0.406-0.172 0.586t-0.516 0.18h-10.891zM7.094 12.922h2.25v-4.406q0-1.5 0.57-2.5t1.492-1.492 1.969-0.492q1.063 0 1.984 0.492t1.492 1.492 0.57 2.5v4.406h2.25v-4.078q0-2.406-0.922-3.945t-2.359-2.273-3.016-0.734q-1.563 0-3.008 0.734t-2.359 2.273-0.914 3.945v4.078z"></path>
</svg>
