<!-- Generated by IcoMoon.io -->
<svg version="1.1" xmlns="http://www.w3.org/2000/svg" width="35" height="32" viewBox="0 0 35 32">
<style>@media (prefers-color-scheme:dark){path{fill:#fff}}</style>
<path d="M12.578 23.891h2.203v-19.078h-2.203v19.078zM10.219 9.734q0.313 0 0.547-0.242t0.234-0.539-0.234-0.523-0.547-0.227h-2.453q-0.313 0-0.539 0.227t-0.227 0.523 0.227 0.539 0.539 0.242h2.453zM10.219 12.859q0.313 0 0.547-0.234t0.234-0.547q0-0.297-0.234-0.523t-0.547-0.227h-2.453q-0.313 0-0.539 0.227t-0.227 0.523q0 0.313 0.227 0.547t0.539 0.234h2.453zM10.219 15.984q0.313 0 0.547-0.227t0.234-0.539q0-0.297-0.234-0.523t-0.547-0.227h-2.453q-0.313 0-0.539 0.227t-0.227 0.523q0 0.313 0.227 0.539t0.539 0.227h2.453zM7.109 25.719h21.016q2.016 0 3-0.984t0.984-2.953v-14.906q0-1.969-0.984-2.953t-3-0.984h-21.016q-1.984 0-2.984 0.984t-1 2.953v14.906q0 1.969 1 2.953t2.984 0.984zM7.141 23.453q-0.844 0-1.305-0.445t-0.461-1.336v-14.688q0-0.875 0.461-1.328t1.305-0.453h20.953q0.844 0 1.305 0.453t0.461 1.328v14.688q0 0.891-0.461 1.336t-1.305 0.445h-20.953z"></path>
</svg>
