<svg height="32" viewBox="0 0 27 32" width="27" xmlns="http://www.w3.org/2000/svg"><path d="m8.188 27h4.922q.453 0 .688-.227t.234-.633-.234-.625-.688-.219h-3.688v-.047l3.891-4.734q.344-.422.469-.703t.125-.563q0-.5-.313-.75t-.844-.25h-4.891q-.438 0-.68.227t-.242.617q0 .422.242.641t.68.219h3.766v.047l-4.109 4.969q-.438.531-.438 1.031 0 .438.305.719t.805.281zm8.859-6.875h6.141q.484 0 .75-.242t.266-.695q0-.438-.266-.672t-.75-.234h-4.813v-.047l5.047-6.078q.359-.438.492-.711t.133-.57q0-.547-.352-.852t-.992-.305h-5.969q-.484 0-.742.242t-.258.68.258.68.742.242h4.813v.047l-5.219 6.313q-.484.578-.484 1.094 0 .5.32.805t.883.305zm-12.578-6.687h7.781q.484 0 .758-.25t.273-.719q0-.453-.273-.703t-.758-.25h-6.328v-.047l6.656-8.016q.344-.406.453-.672t.109-.578q0-.563-.367-.883t-1.039-.32h-7.563q-.5 0-.773.25t-.273.703q0 .469.273.719t.773.25h6.297v.047l-6.844 8.266q-.234.281-.313.508t-.078.539q0 .516.336.836t.898.32z"/></svg>