<svg height="32" viewBox="0 0 28 32" width="28" xmlns="http://www.w3.org/2000/svg"><path d="m7.594 19.656h3.563q.172 0 .266.094l5.656 5.078q.5.453.93.664t.914.211.859-.25.625-.734l-1.594-1.531-6.266-5.391q-.188-.156-.32-.203t-.367-.047h-4.156q-.328 0-.492-.164t-.164-.492v-5.297l-1.688-1.703q-.281.359-.422.883t-.141 1.195v4.734q0 1.5.695 2.227t2.102.727zm16.672 6.891q.313.313.766.313t.75-.313q.313-.313.313-.758t-.313-.758l-21.328-21.328q-.313-.313-.766-.313t-.766.313-.313.766.313.766zm-3.766-9.016v-12.938q0-.672-.453-1.156t-1.156-.484q-.484 0-.867.234t-.945.734l-5.406 4.766 1.563 1.563 4.672-4.234q.047-.031.094-.055t.094-.023q.156 0 .156.156v9.188z"/></svg>