<svg xmlns="http://www.w3.org/2000/svg" width="28" height="32" version="1.1" viewBox="0 0 28 32"><title>uni1002A2small</title><path d="M7.594 19.656h3.563q0.172 0 0.266 0.094l5.656 5.078q0.5 0.453 0.93 0.664t0.914 0.211 0.859-0.25 0.625-0.734l-1.594-1.531-6.266-5.391q-0.188-0.156-0.32-0.203t-0.367-0.047h-4.156q-0.328 0-0.492-0.164t-0.164-0.492v-5.297l-1.688-1.703q-0.281 0.359-0.422 0.883t-0.141 1.195v4.734q0 1.5 0.695 2.227t2.102 0.727zM24.266 26.547q0.313 0.313 0.766 0.313t0.75-0.313q0.313-0.313 0.313-0.758t-0.313-0.758l-21.328-21.328q-0.313-0.313-0.766-0.313t-0.766 0.313-0.313 0.766 0.313 0.766zM20.5 17.531v-12.938q0-0.672-0.453-1.156t-1.156-0.484q-0.484 0-0.867 0.234t-0.945 0.734l-5.406 4.766 1.563 1.563 4.672-4.234q0.047-0.031 0.094-0.055t0.094-0.023q0.156 0 0.156 0.156v9.188z"/></svg>