<!-- Generated by IcoMoon.io -->
<svg version="1.1" xmlns="http://www.w3.org/2000/svg" width="40" height="32" viewBox="0 0 40 32">
<title>uni1002A8small</title>
<path d="M22.906 19.766q0.359 0.25 0.813 0.172t0.75-0.5q0.734-0.969 1.133-2.328t0.398-2.797-0.398-2.789-1.133-2.336q-0.297-0.422-0.75-0.5t-0.813 0.172q-0.438 0.313-0.508 0.789t0.273 0.93q0.516 0.688 0.789 1.695t0.273 2.039-0.281 2.031-0.781 1.703q-0.328 0.469-0.266 0.938t0.5 0.781zM27.828 23.078q0.406 0.266 0.859 0.18t0.75-0.508q1.203-1.703 1.875-3.898t0.672-4.539-0.664-4.547-1.883-3.891q-0.313-0.422-0.758-0.508t-0.852 0.18-0.461 0.734 0.258 0.922q1 1.422 1.555 3.281t0.555 3.828-0.57 3.828-1.539 3.297q-0.297 0.438-0.25 0.906t0.453 0.734zM32.797 26.438q0.391 0.266 0.844 0.164t0.766-0.523q1.703-2.406 2.617-5.453t0.914-6.313-0.93-6.305-2.602-5.461q-0.313-0.438-0.766-0.531t-0.844 0.172q-0.406 0.281-0.461 0.75t0.258 0.906q1.453 2.125 2.289 4.844t0.836 5.625-0.828 5.633-2.313 4.836q-0.297 0.438-0.242 0.906t0.461 0.75zM5.188 19.656h3.563q0.172 0 0.266 0.094l5.656 5.078q0.5 0.453 0.93 0.664t0.914 0.211q0.672 0 1.125-0.438t0.453-1.125v-19.547q0-0.672-0.453-1.156t-1.156-0.484q-0.484 0-0.867 0.234t-0.945 0.734l-5.656 4.984q-0.109 0.109-0.266 0.109h-3.563q-1.406 0-2.102 0.719t-0.695 2.234v4.734q0 1.5 0.695 2.227t2.102 0.727zM5.297 17.547q-0.328 0-0.492-0.164t-0.164-0.492v-5.125q0-0.328 0.164-0.492t0.492-0.164h4.094q0.234 0 0.43-0.063t0.414-0.266l5.266-4.766q0.047-0.031 0.094-0.055t0.094-0.023q0.156 0 0.156 0.156v16.469q0 0.156-0.156 0.156-0.094 0-0.188-0.078l-5.266-4.766q-0.219-0.203-0.414-0.266t-0.43-0.063h-4.094z"></path>
</svg>
