<svg xmlns="http://www.w3.org/2000/svg" width="33" height="32" version="1.1" viewBox="0 0 33 32"><title>uni1002C3small</title><path d="M7.766 27.094q0.438 0.328 0.969 0.227t1.156-0.555l6.359-4.672 6.375 4.672q0.625 0.453 1.156 0.555t0.953-0.227q0.422-0.313 0.5-0.844t-0.172-1.25l-2.516-7.484 6.422-4.609q0.625-0.438 0.883-0.914t0.086-0.992q-0.172-0.5-0.648-0.742t-1.258-0.227l-7.875 0.063-2.391-7.531q-0.234-0.734-0.609-1.125t-0.906-0.391-0.898 0.391-0.617 1.125l-2.391 7.531-7.875-0.063q-0.766-0.016-1.25 0.227t-0.656 0.742q-0.172 0.516 0.086 0.992t0.883 0.914l6.422 4.609-2.516 7.484q-0.25 0.719-0.172 1.25t0.5 0.844z"/></svg>