<!-- Generated by IcoMoon.io -->
<svg version="1.1" xmlns="http://www.w3.org/2000/svg" width="33" height="32" viewBox="0 0 33 32">
<title>uni1002C2small</title>
<path d="M7.766 27.094q0.438 0.328 0.969 0.227t1.156-0.555l6.359-4.672 6.375 4.672q0.625 0.453 1.156 0.555t0.953-0.227q0.422-0.313 0.5-0.844t-0.172-1.25l-2.516-7.484 6.422-4.609q0.625-0.438 0.883-0.914t0.086-0.992q-0.172-0.5-0.648-0.742t-1.258-0.227l-7.875 0.063-2.391-7.531q-0.234-0.734-0.609-1.125t-0.906-0.391-0.898 0.391-0.617 1.125l-2.391 7.531-7.875-0.063q-0.766-0.016-1.25 0.227t-0.656 0.742q-0.172 0.516 0.086 0.992t0.883 0.914l6.422 4.609-2.516 7.484q-0.25 0.719-0.172 1.25t0.5 0.844zM9.813 24.297q-0.016-0.031 0-0.094l2.391-6.75q0.125-0.391 0.047-0.703t-0.438-0.547l-5.906-4.047q-0.063-0.047-0.047-0.078t0.094-0.031l7.156 0.156q0.406 0 0.672-0.172t0.391-0.578l2.016-6.859q0.016-0.078 0.063-0.078t0.063 0.078l2.016 6.859q0.141 0.406 0.398 0.578t0.68 0.172l7.141-0.156q0.078 0 0.094 0.031t-0.047 0.078l-5.906 4.047q-0.344 0.234-0.43 0.547t0.055 0.703l2.375 6.75q0.016 0.063 0 0.094t-0.094-0.016l-5.672-4.359q-0.313-0.266-0.664-0.266t-0.68 0.266l-5.656 4.359q-0.078 0.047-0.109 0.016z"></path>
</svg>
