<svg height="32" viewBox="0 0 32 32" width="32" xmlns="http://www.w3.org/2000/svg"><path d="m16.109 28.25q.406 0 .695-.289t.289-.711v-4.25q0-.422-.289-.711t-.695-.289q-.422 0-.711.289t-.289.711v4.25q0 .422.289.711t.711.289zm6.954-1.875q.359-.203.469-.602t-.094-.758l-2.125-3.672q-.219-.375-.609-.477t-.75.102q-.375.219-.477.609t.102.75l2.125 3.688q.219.359.602.469t.758-.109zm5.093-5.094q.203-.359.102-.75t-.461-.609l-3.688-2.125q-.359-.203-.75-.102t-.609.461q-.203.375-.102.766t.461.609l3.688 2.125q.359.203.758.102t.602-.477zm1.86-6.953q0-.422-.289-.711t-.695-.289h-4.25q-.422 0-.711.289t-.289.711.289.711.711.289h4.25q.406 0 .695-.289t.289-.711zm-1.844-6.953q-.219-.375-.617-.477t-.758.102l-3.688 2.125q-.359.219-.469.609t.125.766q.203.359.594.461t.75-.102l3.688-2.125q.359-.219.469-.609t-.094-.75zm-5.094-5.094q-.375-.219-.766-.109t-.609.469l-2.125 3.688q-.203.359-.102.75t.477.609q.359.203.75.102t.609-.461l2.125-3.688q.203-.359.102-.758t-.461-.602zm-6.969-1.875q-.422 0-.711.289t-.289.711v4.25q0 .422.289.711t.711.289q.406 0 .695-.289t.289-.711v-4.25q0-.422-.289-.711t-.695-.289zm-6.953 1.86q-.375.219-.477.617t.102.758l2.125 3.688q.219.359.602.469t.758-.109q.359-.219.469-.609t-.094-.75l-2.125-3.688q-.219-.359-.609-.469t-.75.094zm-5.093 5.093q-.219.375-.109.766t.469.609l3.688 2.125q.359.203.75.102t.594-.461q.203-.375.102-.766t-.461-.609l-3.688-2.125q-.359-.203-.75-.102t-.594.461zm-1.875 6.969q0 .422.289.711t.711.289h4.25q.406 0 .695-.289t.289-.711-.289-.711-.695-.289h-4.25q-.422 0-.711.289t-.289.711zm1.875 6.953q.203.375.594.477t.75-.102l3.688-2.125q.359-.219.469-.609t-.109-.75q-.203-.375-.594-.477t-.75.102l-3.688 2.125q-.359.219-.469.609t.109.75zm5.093 5.094q.359.219.75.109t.609-.469l2.125-3.688q.203-.359.102-.75t-.461-.609q-.375-.203-.766-.102t-.609.477l-2.125 3.672q-.203.359-.102.758t.477.602z"/></svg>