<!-- Generated by IcoMoon.io -->
<svg version="1.1" xmlns="http://www.w3.org/2000/svg" width="35" height="32" viewBox="0 0 35 32">
<title>uni10012Csmall</title>
<path d="M23.922 25.953q0.547 0 0.938-0.422l6.953-7.125q0.391-0.391 0.391-0.922 0-0.563-0.344-0.906t-0.891-0.344q-0.281 0-0.484 0.094t-0.375 0.25l-3.219 3.328-2.578 3.094 0.672 0.25 0.188-4.016v-15.281q0-0.547-0.352-0.906t-0.898-0.359q-0.563 0-0.914 0.359t-0.352 0.906v15.281l0.188 4.016 0.672-0.25-2.578-3.094-3.219-3.328q-0.156-0.156-0.367-0.25t-0.477-0.094q-0.563 0-0.906 0.344t-0.344 0.906q0 0.531 0.391 0.922l6.953 7.125q0.406 0.422 0.953 0.422zM11.422 25.953q0.547 0 0.898-0.359t0.352-0.906v-15.281l-0.188-4.016-0.672 0.25 2.578 3.094 3.219 3.328q0.172 0.156 0.375 0.25t0.484 0.094q0.547 0 0.891-0.344t0.344-0.906q0-0.531-0.391-0.922l-6.953-7.125q-0.391-0.422-0.938-0.422t-0.953 0.422l-6.953 7.125q-0.391 0.391-0.391 0.922 0 0.563 0.344 0.906t0.906 0.344q0.266 0 0.477-0.094t0.367-0.25l3.219-3.328 2.578-3.094-0.672-0.25-0.188 4.016v15.281q0 0.547 0.352 0.906t0.914 0.359z"></path>
</svg>
