<svg xmlns="http://www.w3.org/2000/svg" width="31" height="32" version="1.1" viewBox="0 0 31 32"><title>uni10062Fsmall</title><path d="M11.719 26.313h7.719q0.719 0 1.242-0.148t0.938-0.438 0.789-0.711l4.578-5.125q0.641-0.703 0.852-1.273t0.211-1.492v-5.484q0-0.922-0.211-1.5t-0.852-1.281l-4.578-5.125q-0.375-0.422-0.789-0.711t-0.938-0.438-1.242-0.148h-7.719q-0.703 0-1.227 0.148t-0.938 0.438-0.789 0.711l-4.594 5.125q-0.625 0.703-0.836 1.281t-0.211 1.5v5.484q0 0.922 0.211 1.492t0.836 1.273l4.594 5.125q0.375 0.422 0.789 0.711t0.938 0.438 1.227 0.148zM12.516 24.063q-0.531 0-0.875-0.078t-0.602-0.273-0.555-0.523l-4.172-4.641q-0.344-0.406-0.461-0.727t-0.117-0.977v-4.922q0-0.672 0.117-0.992t0.461-0.711l4.172-4.641q0.297-0.328 0.555-0.523t0.602-0.281 0.875-0.086h6.125q0.547 0 0.883 0.086t0.594 0.281 0.57 0.523l4.172 4.641q0.344 0.391 0.461 0.711t0.117 0.992v4.922q0 0.656-0.117 0.977t-0.461 0.727l-4.172 4.641q-0.313 0.328-0.57 0.523t-0.594 0.273-0.883 0.078h-6.125zM15.578 16.531q1.047 0 1.063-1.078l0.203-6.406q0-0.516-0.367-0.867t-0.914-0.352-0.898 0.344-0.352 0.859l0.188 6.422q0.016 1.078 1.078 1.078zM15.578 20.625q0.578 0 1.008-0.398t0.43-0.977q0-0.594-0.422-0.984t-1.016-0.391q-0.578 0-1 0.398t-0.422 0.977q0 0.563 0.43 0.969t0.992 0.406z"/></svg>