<!-- Generated by IcoMoon.io -->
<svg version="1.1" xmlns="http://www.w3.org/2000/svg" width="32" height="32" viewBox="0 0 32 32">
<title>uni100324small</title>
<path d="M7.563 27.484q0.875 0 2.234-0.531t2.852-1.375 2.742-1.781q2.625 0.031 4.898-0.523t4.102-1.57 3.133-2.414 2-3.086 0.695-3.578q0-2.328-1.078-4.359t-3.008-3.563-4.469-2.398-5.461-0.867q-2.906 0-5.453 0.867t-4.469 2.398-3.008 3.563-1.086 4.359q0 2.016 0.805 3.828t2.258 3.25 3.391 2.313q-0.422 0.813-1.094 1.813t-1.094 1.578q-0.328 0.438-0.305 0.922t0.383 0.82 1.031 0.336zM9.094 25.156q-0.063 0.031-0.086-0.016t0.023-0.109q0.531-0.656 1.156-1.516t0.922-1.391q0.281-0.531 0.172-1t-0.781-0.781q-2.875-1.344-4.438-3.344t-1.563-4.375q0-1.828 0.898-3.438t2.508-2.836 3.734-1.914 4.563-0.688q2.453 0 4.578 0.688t3.727 1.914 2.5 2.836 0.898 3.438-0.898 3.438-2.5 2.836-3.727 1.922-4.578 0.695q-0.109 0-0.344-0.008t-0.578-0.008q-0.438 0-0.789 0.148t-0.742 0.477q-0.688 0.531-1.555 1.125t-1.695 1.109-1.406 0.797z"></path>
</svg>
