<svg xmlns="http://www.w3.org/2000/svg" width="32" height="32" version="1.1" viewBox="0 0 32 32"><title>uni10025Asmall</title><path d="M15.953 5.625q-0.547-0.641-1.453-1.148t-2.039-0.805-2.352-0.297q-1.734 0-3.164 0.523t-2.422 1.336-1.398 1.719v16.969q0 0.813 0.445 1.148t1.023 0.336q0.453 0 0.75-0.125t0.594-0.344q0.391-0.297 0.961-0.594t1.359-0.5 1.852-0.203q1.047 0 1.883 0.188t1.438 0.469 0.945 0.547q0.281 0.219 0.641 0.391t0.938 0.172v-19.781zM5.375 7.625q0.172-0.406 0.766-0.906t1.594-0.867 2.375-0.367q1.359 0 2.367 0.375t1.602 0.875 0.75 0.891v15.203q-0.906-0.625-2.133-0.961t-2.586-0.336-2.594 0.344-2.141 1v-15.25zM15.953 5.625v19.781q0.578 0 0.93-0.18t0.648-0.383q0.359-0.234 0.961-0.523t1.43-0.484 1.891-0.195q1.047 0 1.844 0.203t1.367 0.508 0.961 0.586q0.281 0.219 0.578 0.344t0.75 0.125q0.578 0 1.023-0.336t0.445-1.148v-16.969q-0.406-0.906-1.398-1.719t-2.422-1.336-3.148-0.523q-1.234 0-2.367 0.297t-2.039 0.805-1.453 1.148zM26.531 7.625v15.25q-0.906-0.656-2.141-1t-2.578-0.344q-1.359 0-2.594 0.336t-2.141 0.961v-15.203q0.156-0.391 0.75-0.891t1.602-0.875 2.383-0.375q1.359 0 2.359 0.367t1.594 0.867 0.766 0.906z"/></svg>