<svg xmlns="http://www.w3.org/2000/svg" width="33" height="32" version="1.1" viewBox="0 0 33 32"><title>uni100407small</title><path d="M19.859 22.25q0.453 0 0.758-0.313t0.305-0.781v-2.906h2.844q0.5 0 0.844-0.328t0.344-0.781q0-0.438-0.344-0.758t-0.844-0.32h-2.844v-2.891q0-0.469-0.305-0.781t-0.758-0.313q-0.438 0-0.742 0.313t-0.305 0.781v2.891h-2.984q-0.438 0-0.773 0.328t-0.336 0.75q0 0.438 0.336 0.773t0.773 0.336h2.984v2.906q0 0.469 0.305 0.781t0.742 0.313zM13.328 27.578h13.016q2 0 2.992-0.984t0.992-2.953v-12.953q0-1.969-0.992-2.945t-2.992-0.977h-13.016q-2 0-2.992 0.977t-0.992 2.945v12.953q0 1.969 0.992 2.953t2.992 0.984zM7.109 21.531h2.609v-2.25h-2.578q-0.844 0-1.305-0.453t-0.461-1.344v-12.563q0-0.891 0.461-1.344t1.305-0.453h12.953q0.844 0 1.305 0.453t0.461 1.344v2.75h2.25v-2.875q0-1.969-0.992-2.945t-2.992-0.977h-13.016q-2 0-2.992 0.977t-0.992 2.945v12.813q0 1.969 0.992 2.945t2.992 0.977zM13.359 25.313q-0.844 0-1.305-0.453t-0.461-1.328v-12.719q0-0.891 0.461-1.344t1.305-0.453h12.953q0.844 0 1.305 0.453t0.461 1.344v12.719q0 0.891-0.461 1.336t-1.305 0.445h-12.953z"/></svg>