<svg height="32" viewBox="0 0 31 32" width="31" xmlns="http://www.w3.org/2000/svg"><path d="m17.953 27.984q.719 0 1.242-.578t.898-1.531l7.938-20.734q.188-.484.289-.898t.102-.773q0-.641-.383-1.023t-1.023-.383q-.359 0-.773.102t-.883.289l-20.875 8q-.828.313-1.406.828t-.578 1.25q0 .938.633 1.336t1.57.68l8.688 2.563 2.531 8.547q.281.984.688 1.656t1.344.672zm-3.937-13-8.219-2.547q-.078-.031-.109-.063t-.031-.063q0-.109.141-.156l15.547-5.875q.828-.313 1.633-.703t1.617-.766q-.703.578-1.469 1.203t-1.344 1.203zm4.172 9.875q-.047 0-.078-.047t-.063-.125l-2.547-8.219 7.766-7.75q.578-.594 1.219-1.367t1.203-1.492q-.375.813-.773 1.625t-.711 1.672l-5.875 15.531q-.063.172-.141.172z"/></svg>