<svg xmlns="http://www.w3.org/2000/svg" width="30" height="32" version="1.1" viewBox="0 0 30 32"><title>uni1004D7small</title><path d="M10.438 25.953q0.484 0 0.766-0.297t0.281-0.813v-21.063q0-0.516-0.281-0.813t-0.766-0.297q-0.5 0-0.773 0.297t-0.273 0.813v21.063q0 0.516 0.273 0.813t0.773 0.297zM19.625 25.953q0.484 0 0.766-0.297t0.281-0.813v-21.063q0-0.516-0.281-0.813t-0.766-0.297q-0.5 0-0.781 0.297t-0.281 0.813v21.063q0 0.516 0.281 0.813t0.781 0.297zM4.234 19.828h21.625q0.516 0 0.813-0.281t0.297-0.766q0-0.5-0.297-0.773t-0.813-0.273h-21.625q-0.516 0-0.813 0.273t-0.297 0.773q0 0.484 0.297 0.766t0.813 0.281zM4.234 10.938h21.625q0.516 0 0.813-0.281t0.297-0.766q0-0.5-0.297-0.773t-0.813-0.273h-21.625q-0.516 0-0.813 0.273t-0.297 0.773q0 0.484 0.297 0.766t0.813 0.281z"/></svg>