<svg xmlns="http://www.w3.org/2000/svg" width="26" height="32" version="1.1" viewBox="0 0 26 32"><title>uni10025Esmall</title><path d="M4.609 27.594q0.516 0 0.984-0.359t1.531-1.438l5.641-5.609q0.109-0.109 0.188-0.109 0.063 0 0.172 0.109l5.641 5.609q1.047 1.047 1.523 1.422t1.008 0.375q0.609 0 1.039-0.406t0.43-1.328v-20.813q0-1.984-0.977-2.984t-2.945-1h-11.797q-1.969 0-2.945 1t-0.977 2.984v20.813q0 0.922 0.43 1.328t1.055 0.406zM5.625 24.172q-0.109 0.109-0.18 0.078t-0.070-0.188v-18.984q0-0.844 0.453-1.297t1.344-0.453h11.547q0.891 0 1.344 0.453t0.453 1.297v18.984q0 0.156-0.070 0.18t-0.18-0.070l-6.656-6.578q-0.172-0.172-0.344-0.227t-0.313-0.055-0.313 0.055-0.344 0.227z"/></svg>