<svg xmlns="http://www.w3.org/2000/svg" width="30" height="32" version="1.1" viewBox="0 0 30 32"><title>uni1007A1small</title><path d="M4.813 16.656q0 1.734 0.5 3.016t1.609 2.375 2.922 2.234 4.438 2.594q0.266 0.141 0.492 0.188t0.367 0.047 0.359-0.047 0.484-0.188q1.375-0.766 2.531-1.43t2.094-1.273l-1.719-1.703q-0.625 0.391-1.359 0.836t-1.578 0.945q-0.328 0.203-0.5 0.258t-0.313 0.055q-0.156 0-0.328-0.063t-0.484-0.25q-2.109-1.25-3.516-2.156t-2.234-1.742-1.188-1.828-0.359-2.414v-5.5l-2.219-2.219v8.266zM25.281 26.672q0.328 0.313 0.773 0.313t0.758-0.313q0.297-0.313 0.305-0.758t-0.305-0.758l-23.109-23.078q-0.313-0.313-0.758-0.313t-0.773 0.313q-0.297 0.297-0.297 0.75t0.297 0.766zM25.469 7.25q0-0.953-0.43-1.367t-1.164-0.727q-0.469-0.203-1.531-0.602t-2.305-0.844-2.313-0.82-1.539-0.547q-0.25-0.078-0.516-0.133t-0.531-0.055-0.539 0.070-0.523 0.117q-0.453 0.125-1.445 0.469t-2.172 0.781-2.211 0.828l1.75 1.75q0.813-0.297 1.664-0.594t1.633-0.578 1.422-0.5q0.109-0.047 0.219-0.070t0.203-0.023 0.195 0.023 0.227 0.070q0.75 0.266 1.703 0.617t1.969 0.727 1.969 0.719 1.719 0.594q0.203 0.078 0.258 0.188t0.055 0.328v8.438q0 0.844-0.117 1.531t-0.398 1.281l1.734 1.734q0.531-0.844 0.773-1.813t0.242-2.188v-9.406z"/></svg>