<svg height="32" viewBox="0 0 26 32" width="26" xmlns="http://www.w3.org/2000/svg"><path d="m4.609 27.594q.516 0 .984-.359t1.531-1.438l5.641-5.609q.109-.109.188-.109.063 0 .172.109l5.641 5.609q1.047 1.047 1.523 1.422t1.008.375q.609 0 1.039-.406t.43-1.328v-20.813q0-1.984-.977-2.984t-2.945-1h-11.797q-1.969 0-2.945 1t-.977 2.984v20.813q0 .922.43 1.328t1.055.406zm1.016-3.422q-.109.109-.18.078t-.07-.188v-18.984q0-.844.453-1.297t1.344-.453h11.547q.891 0 1.344.453t.453 1.297v18.984q0 .156-.07.18t-.18-.07l-6.656-6.578q-.172-.172-.344-.227t-.313-.055-.313.055-.344.227z"/></svg>