<svg height="32" viewBox="0 0 32 32" width="32" xmlns="http://www.w3.org/2000/svg"><path d="m9.813 20.469 6.922-3.328q.578-.297.891-.906l3.313-6.906q.328-.672-.07-1.078t-1.102-.078l-6.891 3.313q-.578.281-.891.906l-3.328 6.922q-.313.641.094 1.055t1.063.102zm4.984-4.641q-.609 0-1.055-.438t-.445-1.063.445-1.063 1.055-.438q.625 0 1.063.438t.438 1.063-.438 1.063-1.063.438zm0 11.094q2.594 0 4.875-.984t4.023-2.734 2.734-4.031.992-4.859-.992-4.859-2.742-4.023-4.031-2.734-4.875-.992q-2.578 0-4.859.992t-4.016 2.734-2.727 4.023-.992 4.859.992 4.859 2.734 4.031 4.023 2.734 4.859.984zm0-2.375q-2.125 0-3.977-.789t-3.25-2.195-2.188-3.258-.789-3.992q0-2.125.781-3.984t2.18-3.258 3.25-2.195 3.977-.797q2.141 0 3.992.797t3.258 2.195 2.203 3.258.797 3.984q0 2.141-.789 3.992t-2.188 3.258-3.258 2.195-4 .789z"/></svg>