<svg xmlns="http://www.w3.org/2000/svg" width="29" height="32" version="1.1" viewBox="0 0 29 32"><title>uni1001F7small</title><path d="M5.625 13.344h5.391q1.25 0 1.875-0.641t0.625-1.922v-5.281q0-1.281-0.625-1.922t-1.875-0.641h-5.391q-1.25 0-1.875 0.641t-0.625 1.922v5.281q0 1.281 0.625 1.922t1.875 0.641zM18 13.344h5.391q1.266 0 1.883-0.641t0.617-1.922v-5.281q0-1.281-0.617-1.922t-1.883-0.641h-5.391q-1.25 0-1.875 0.641t-0.625 1.922v5.281q0 1.281 0.625 1.922t1.875 0.641zM5.625 25.719h5.391q1.25 0 1.875-0.633t0.625-1.93v-5.281q0-1.281-0.625-1.914t-1.875-0.633h-5.391q-1.25 0-1.875 0.633t-0.625 1.914v5.281q0 1.297 0.625 1.93t1.875 0.633zM5.641 23.75q-0.563 0-0.563-0.578v-5.297q0-0.594 0.563-0.594h5.344q0.578 0 0.578 0.594v5.297q0 0.578-0.578 0.578h-5.344zM5.641 11.375q-0.563 0-0.563-0.594v-5.297q0-0.578 0.563-0.578h5.344q0.578 0 0.578 0.578v5.297q0 0.594-0.578 0.594h-5.344zM18 25.719h5.391q1.266 0 1.883-0.633t0.617-1.93v-5.281q0-1.281-0.617-1.914t-1.883-0.633h-5.391q-1.25 0-1.875 0.633t-0.625 1.914v5.281q0 1.297 0.625 1.93t1.875 0.633zM18.031 23.75q-0.578 0-0.578-0.578v-5.297q0-0.594 0.578-0.594h5.344q0.563 0 0.563 0.594v5.297q0 0.578-0.563 0.578h-5.344zM18.031 11.375q-0.578 0-0.578-0.594v-5.297q0-0.578 0.578-0.578h5.344q0.563 0 0.563 0.578v5.297q0 0.594-0.563 0.594h-5.344z"/></svg>