<!-- Generated by IcoMoon.io -->
<svg version="1.1" xmlns="http://www.w3.org/2000/svg" width="31" height="32" viewBox="0 0 31 32">
<title>uni10021Fsmall</title>
<path d="M17.953 27.984q0.719 0 1.242-0.578t0.898-1.531l7.938-20.734q0.188-0.484 0.289-0.898t0.102-0.773q0-0.641-0.383-1.023t-1.023-0.383q-0.359 0-0.773 0.102t-0.883 0.289l-20.875 8q-0.828 0.313-1.406 0.828t-0.578 1.25q0 0.938 0.633 1.336t1.57 0.68l8.688 2.563 2.531 8.547q0.281 0.984 0.688 1.656t1.344 0.672zM14.016 14.984l-8.219-2.547q-0.078-0.031-0.109-0.063t-0.031-0.063q0-0.109 0.141-0.156l15.547-5.875q0.828-0.313 1.633-0.703t1.617-0.766q-0.703 0.578-1.469 1.203t-1.344 1.203zM18.188 24.859q-0.047 0-0.078-0.047t-0.063-0.125l-2.547-8.219 7.766-7.75q0.578-0.594 1.219-1.367t1.203-1.492q-0.375 0.813-0.773 1.625t-0.711 1.672l-5.875 15.531q-0.063 0.172-0.141 0.172z"></path>
</svg>
