<!-- Generated by IcoMoon.io -->
<svg version="1.1" xmlns="http://www.w3.org/2000/svg" width="32" height="32" viewBox="0 0 32 32">
<title>uni1003ACsmall</title>
<path d="M9.813 20.469l6.922-3.328q0.578-0.297 0.891-0.906l3.313-6.906q0.328-0.672-0.070-1.078t-1.102-0.078l-6.891 3.313q-0.578 0.281-0.891 0.906l-3.328 6.922q-0.313 0.641 0.094 1.055t1.063 0.102zM14.797 15.828q-0.609 0-1.055-0.438t-0.445-1.063 0.445-1.063 1.055-0.438q0.625 0 1.063 0.438t0.438 1.063-0.438 1.063-1.063 0.438zM14.797 26.922q2.594 0 4.875-0.984t4.023-2.734 2.734-4.031 0.992-4.859-0.992-4.859-2.742-4.023-4.031-2.734-4.875-0.992q-2.578 0-4.859 0.992t-4.016 2.734-2.727 4.023-0.992 4.859 0.992 4.859 2.734 4.031 4.023 2.734 4.859 0.984zM14.797 24.547q-2.125 0-3.977-0.789t-3.25-2.195-2.188-3.258-0.789-3.992q0-2.125 0.781-3.984t2.18-3.258 3.25-2.195 3.977-0.797q2.141 0 3.992 0.797t3.258 2.195 2.203 3.258 0.797 3.984q0 2.141-0.789 3.992t-2.188 3.258-3.258 2.195-4 0.789z"></path>
</svg>
