<svg xmlns="http://www.w3.org/2000/svg" width="31" height="32" version="1.1" viewBox="0 0 31 32"><title>uni1001F0small</title><path d="M6.125 21.938l2.625-2.594q0.359-0.359 0.867-0.359t0.852 0.359q0.344 0.344 0.344 0.852t-0.344 0.852l-2.625 2.625q-0.344 0.344-0.859 0.344t-0.859-0.359q-0.344-0.344-0.344-0.852t0.344-0.867zM3.406 13.047h3.734q0.5 0 0.859 0.359t0.359 0.859-0.359 0.859-0.859 0.359h-3.734q-0.5 0-0.859-0.359t-0.359-0.859 0.359-0.859 0.859-0.359zM8.609 9.063l-2.609-2.641q-0.344-0.344-0.344-0.852t0.344-0.867q0.344-0.344 0.852-0.336t0.867 0.352l2.609 2.625q0.344 0.359 0.344 0.867t-0.344 0.852q-0.359 0.344-0.867 0.344t-0.852-0.344zM16.766 2.125v3.719q0 0.5-0.367 0.859t-0.852 0.359q-0.5 0-0.859-0.359t-0.359-0.859v-3.719q0-0.484 0.359-0.852t0.859-0.367q0.484 0 0.852 0.367t0.367 0.852zM20.594 7.5l2.641-2.641q0.344-0.344 0.852-0.344t0.867 0.344q0.344 0.344 0.344 0.859t-0.344 0.875l-2.625 2.609q-0.359 0.359-0.867 0.359t-0.867-0.359q-0.344-0.344-0.344-0.852t0.344-0.852zM27.672 15.484h-3.719q-0.484 0-0.852-0.359t-0.367-0.859 0.367-0.859 0.852-0.359h3.719q0.5 0 0.859 0.359t0.359 0.859-0.359 0.859-0.859 0.359zM22.094 26.469l-2.75-6.406-0.406 0.688 3.906 0.234q0.422 0.016 0.57-0.328t-0.148-0.656l-7.75-7.797q-0.281-0.281-0.594-0.156t-0.344 0.516l-0.188 10.953q-0.016 0.438 0.359 0.578t0.656-0.188l2.484-2.781-0.766-0.25 2.641 6.563q0.109 0.203 0.289 0.289t0.367 0.008l1.438-0.594q0.203-0.063 0.266-0.266t-0.031-0.406z"/></svg>