<!-- Generated by IcoMoon.io -->
<svg version="1.1" xmlns="http://www.w3.org/2000/svg" width="32" height="32" viewBox="0 0 32 32">
<title>uni1001F1small</title>
<path d="M16.109 28.25q0.406 0 0.695-0.289t0.289-0.711v-4.25q0-0.422-0.289-0.711t-0.695-0.289q-0.422 0-0.711 0.289t-0.289 0.711v4.25q0 0.422 0.289 0.711t0.711 0.289zM23.063 26.375q0.359-0.203 0.469-0.602t-0.094-0.758l-2.125-3.672q-0.219-0.375-0.609-0.477t-0.75 0.102q-0.375 0.219-0.477 0.609t0.102 0.75l2.125 3.688q0.219 0.359 0.602 0.469t0.758-0.109zM28.156 21.281q0.203-0.359 0.102-0.75t-0.461-0.609l-3.688-2.125q-0.359-0.203-0.75-0.102t-0.609 0.461q-0.203 0.375-0.102 0.766t0.461 0.609l3.688 2.125q0.359 0.203 0.758 0.102t0.602-0.477zM30.016 14.328q0-0.422-0.289-0.711t-0.695-0.289h-4.25q-0.422 0-0.711 0.289t-0.289 0.711 0.289 0.711 0.711 0.289h4.25q0.406 0 0.695-0.289t0.289-0.711zM28.172 7.375q-0.219-0.375-0.617-0.477t-0.758 0.102l-3.688 2.125q-0.359 0.219-0.469 0.609t0.125 0.766q0.203 0.359 0.594 0.461t0.75-0.102l3.688-2.125q0.359-0.219 0.469-0.609t-0.094-0.75zM23.078 2.281q-0.375-0.219-0.766-0.109t-0.609 0.469l-2.125 3.688q-0.203 0.359-0.102 0.75t0.477 0.609q0.359 0.203 0.75 0.102t0.609-0.461l2.125-3.688q0.203-0.359 0.102-0.758t-0.461-0.602zM16.109 0.406q-0.422 0-0.711 0.289t-0.289 0.711v4.25q0 0.422 0.289 0.711t0.711 0.289q0.406 0 0.695-0.289t0.289-0.711v-4.25q0-0.422-0.289-0.711t-0.695-0.289zM9.156 2.266q-0.375 0.219-0.477 0.617t0.102 0.758l2.125 3.688q0.219 0.359 0.602 0.469t0.758-0.109q0.359-0.219 0.469-0.609t-0.094-0.75l-2.125-3.688q-0.219-0.359-0.609-0.469t-0.75 0.094zM4.063 7.359q-0.219 0.375-0.109 0.766t0.469 0.609l3.688 2.125q0.359 0.203 0.75 0.102t0.594-0.461q0.203-0.375 0.102-0.766t-0.461-0.609l-3.688-2.125q-0.359-0.203-0.75-0.102t-0.594 0.461zM2.188 14.328q0 0.422 0.289 0.711t0.711 0.289h4.25q0.406 0 0.695-0.289t0.289-0.711-0.289-0.711-0.695-0.289h-4.25q-0.422 0-0.711 0.289t-0.289 0.711zM4.063 21.281q0.203 0.375 0.594 0.477t0.75-0.102l3.688-2.125q0.359-0.219 0.469-0.609t-0.109-0.75q-0.203-0.375-0.594-0.477t-0.75 0.102l-3.688 2.125q-0.359 0.219-0.469 0.609t0.109 0.75zM9.156 26.375q0.359 0.219 0.75 0.109t0.609-0.469l2.125-3.688q0.203-0.359 0.102-0.75t-0.461-0.609q-0.375-0.203-0.766-0.102t-0.609 0.477l-2.125 3.672q-0.203 0.359-0.102 0.758t0.477 0.602z"></path>
</svg>
