<svg height="32" viewBox="0 0 29 32" width="29" xmlns="http://www.w3.org/2000/svg"><path d="m24.75 10.922q1.125 0 1.125-1.141v-2.906q0-1.969-.992-2.945t-2.992-.977h-2.906q-1.141 0-1.141 1.125t1.141 1.125h2.875q.844 0 1.305.453t.461 1.344v2.781q0 1.141 1.125 1.141zm-17.641 14.781h2.906q1.141 0 1.141-1.125t-1.141-1.125h-2.875q-.844 0-1.305-.453t-.461-1.344v-2.781q0-1.141-1.125-1.141t-1.125 1.141v2.906q0 1.969 1 2.945t2.984.977zm11.875 0h2.906q2 0 2.992-.977t.992-2.945v-2.906q0-1.141-1.125-1.141t-1.125 1.141v2.781q0 .891-.461 1.344t-1.305.453h-2.875q-1.141 0-1.141 1.125t1.141 1.125zm-14.734-14.781q1.125 0 1.125-1.141v-2.781q0-.891.461-1.344t1.305-.453h2.875q1.141 0 1.141-1.125t-1.141-1.125h-2.906q-1.984 0-2.984.977t-1 2.945v2.906q0 1.141 1.125 1.141z"/></svg>