<svg xmlns="http://www.w3.org/2000/svg" width="25" height="32" version="1.1" viewBox="0 0 25 32"><title>uni10018Fsmall</title><path d="M12.547 3.25q-0.234 0-0.461 0.094t-0.477 0.297l-8.125 6.563q-0.359 0.328-0.359 0.922 0 0.547 0.367 0.922t0.93 0.375q0.219 0 0.445-0.094t0.477-0.281l7.203-5.828 7.203 5.828q0.234 0.188 0.469 0.281t0.453 0.094q0.563 0 0.93-0.375t0.367-0.922q0-0.594-0.375-0.922l-8.109-6.563q-0.25-0.203-0.484-0.297t-0.453-0.094zM12.547 25.156q0.219 0 0.453-0.094t0.484-0.297l8.109-6.563q0.375-0.328 0.375-0.922 0-0.547-0.367-0.922t-0.93-0.375q-0.219 0-0.453 0.094t-0.469 0.281l-7.203 5.828-7.203-5.828q-0.25-0.188-0.477-0.281t-0.445-0.094q-0.563 0-0.93 0.375t-0.367 0.922q0 0.594 0.359 0.922l8.125 6.563q0.25 0.203 0.477 0.297t0.461 0.094z"/></svg>