<svg xmlns="http://www.w3.org/2000/svg" width="28" height="32" version="1.1" viewBox="0 0 28 32"><title>uni100360small</title><path d="M7.391 14.328q0-1.078-0.766-1.828t-1.859-0.75q-1.063 0-1.82 0.75t-0.758 1.828q0 0.719 0.352 1.297t0.938 0.922 1.289 0.344q0.734 0 1.328-0.344t0.945-0.922 0.352-1.297zM16.672 14.328q0-1.078-0.75-1.828t-1.828-0.75q-1.063 0-1.813 0.75t-0.75 1.828q0 0.719 0.344 1.297t0.93 0.922 1.289 0.344q0.719 0 1.305-0.344t0.93-0.922 0.344-1.297zM26.016 14.328q0-1.078-0.758-1.828t-1.82-0.75q-1.094 0-1.859 0.75t-0.766 1.828q0 0.719 0.352 1.297t0.945 0.922 1.328 0.344q0.703 0 1.289-0.344t0.938-0.922 0.352-1.297z"/></svg>