<svg height="32" viewBox="0 0 30 32" width="30" xmlns="http://www.w3.org/2000/svg"><path d="m4.813 16.656q0 1.734.5 3.016t1.609 2.375 2.922 2.234 4.438 2.594q.266.141.492.188t.367.047.359-.047.484-.188q1.375-.766 2.531-1.43t2.094-1.273l-1.719-1.703q-.625.391-1.359.836t-1.578.945q-.328.203-.5.258t-.313.055q-.156 0-.328-.063t-.484-.25q-2.109-1.25-3.516-2.156t-2.234-1.742-1.188-1.828-.359-2.414v-5.5l-2.219-2.219v8.266zm20.468 10.016q.328.313.773.313t.758-.313q.297-.313.305-.758t-.305-.758l-23.109-23.078q-.313-.313-.758-.313t-.773.313q-.297.297-.297.75t.297.766zm.188-19.422q0-.953-.43-1.367t-1.164-.727q-.469-.203-1.531-.602t-2.305-.844-2.313-.82-1.539-.547q-.25-.078-.516-.133t-.531-.055-.539.07-.523.117q-.453.125-1.445.469t-2.172.781-2.211.828l1.75 1.75q.813-.297 1.664-.594t1.633-.578 1.422-.5q.109-.047.219-.07t.203-.023.195.023.227.07q.75.266 1.703.617t1.969.727 1.969.719 1.719.594q.203.078.258.188t.055.328v8.438q0 .844-.117 1.531t-.398 1.281l1.734 1.734q.531-.844.773-1.813t.242-2.188v-9.406z"/></svg>