<svg height="32" viewBox="0 0 25 32" width="25" xmlns="http://www.w3.org/2000/svg"><path d="m12.547 3.25q-.234 0-.461.094t-.477.297l-8.125 6.563q-.359.328-.359.922 0 .547.367.922t.93.375q.219 0 .445-.094t.477-.281l7.203-5.828 7.203 5.828q.234.188.469.281t.453.094q.563 0 .93-.375t.367-.922q0-.594-.375-.922l-8.109-6.563q-.25-.203-.484-.297t-.453-.094zm0 21.906q.219 0 .453-.094t.484-.297l8.109-6.563q.375-.328.375-.922 0-.547-.367-.922t-.93-.375q-.219 0-.453.094t-.469.281l-7.203 5.828-7.203-5.828q-.25-.188-.477-.281t-.445-.094q-.563 0-.93.375t-.367.922q0 .594.359.922l8.125 6.563q.25.203.477.297t.461.094z"/></svg>