<!-- Generated by IcoMoon.io -->
<svg version="1.1" xmlns="http://www.w3.org/2000/svg" width="24" height="32" viewBox="0 0 24 32">
<title>uni1002E5small</title>
<path d="M9.469 27.547l11.172-14.406q0.344-0.438 0.344-0.859t-0.289-0.695-0.711-0.273h-6.891l3.625-9.391q0.266-0.719-0.039-1.156t-0.852-0.445-1 0.57l-11.172 14.406q-0.344 0.438-0.344 0.859t0.289 0.695 0.711 0.273h6.891l-3.625 9.391q-0.266 0.719 0.039 1.156t0.852 0.445 1-0.57zM10.25 23.828l4.188-8.781h-7.641l7.625-10.219-0.391-0.219-4.172 8.781h7.625l-7.625 10.219z"></path>
</svg>
