<!-- Generated by IcoMoon.io -->
<svg version="1.1" xmlns="http://www.w3.org/2000/svg" width="33" height="32" viewBox="0 0 33 32">
<title>uni10019Bsmall</title>
<path d="M25.406 25.719l-10.734-0.016q-0.734 0-1.406-0.156t-1.273-0.492-1.133-0.883l-7.141-7.453q-0.625-0.641-0.922-1.234t-0.297-1.172 0.297-1.172 0.922-1.234l7.125-7.453q0.531-0.547 1.133-0.883t1.273-0.484 1.406-0.148h10.75q1.984 0 2.984 0.984t1 2.953v14.906q0 1.969-1 2.953t-2.984 0.984zM22.234 19.422q-0.219 0-0.406-0.070t-0.328-0.227l-3.313-3.328-3.313 3.328q-0.141 0.156-0.328 0.227t-0.406 0.070q-0.453 0-0.766-0.313t-0.313-0.75q0-0.422 0.328-0.75l3.281-3.297-3.281-3.297q-0.328-0.328-0.328-0.75 0-0.453 0.32-0.773t0.758-0.32q0.219 0 0.406 0.086t0.344 0.242l3.297 3.297 3.297-3.297q0.156-0.156 0.344-0.242t0.406-0.086q0.438 0 0.758 0.32t0.32 0.773q0 0.422-0.328 0.75l-3.281 3.297 3.281 3.297q0.328 0.328 0.328 0.75 0 0.438-0.313 0.75t-0.766 0.313zM25.375 23.453q0.844 0 1.297-0.445t0.453-1.336v-14.688q0-0.875-0.453-1.328t-1.297-0.453h-10.766q-0.672 0-1.141 0.164t-0.922 0.633l-7.078 7.375q-0.5 0.547-0.5 0.938 0 0.203 0.102 0.414t0.398 0.523l7.094 7.391q0.469 0.484 0.93 0.648t1.133 0.164h10.75z"></path>
</svg>
