<svg height="32" viewBox="0 0 33 32" width="33" xmlns="http://www.w3.org/2000/svg"><path d="m25.406 25.719-10.734-.016q-.734 0-1.406-.156t-1.273-.492-1.133-.883l-7.141-7.453q-.625-.641-.922-1.234t-.297-1.172.297-1.172.922-1.234l7.125-7.453q.531-.547 1.133-.883t1.273-.484 1.406-.148h10.75q1.984 0 2.984.984t1 2.953v14.906q0 1.969-1 2.953t-2.984.984zm-3.172-6.297q-.219 0-.406-.07t-.328-.227l-3.313-3.328-3.313 3.328q-.141.156-.328.227t-.406.07q-.453 0-.766-.313t-.313-.75q0-.422.328-.75l3.281-3.297-3.281-3.297q-.328-.328-.328-.75 0-.453.32-.773t.758-.32q.219 0 .406.086t.344.242l3.297 3.297 3.297-3.297q.156-.156.344-.242t.406-.086q.438 0 .758.32t.32.773q0 .422-.328.75l-3.281 3.297 3.281 3.297q.328.328.328.75 0 .438-.313.75t-.766.313zm3.141 4.031q.844 0 1.297-.445t.453-1.336v-14.688q0-.875-.453-1.328t-1.297-.453h-10.766q-.672 0-1.141.164t-.922.633l-7.078 7.375q-.5.547-.5.938 0 .203.102.414t.398.523l7.094 7.391q.469.484.93.648t1.133.164z"/></svg>