<svg height="32" viewBox="0 0 28 32" width="28" xmlns="http://www.w3.org/2000/svg"><path d="m7.391 14.328q0-1.078-.766-1.828t-1.859-.75q-1.063 0-1.82.75t-.758 1.828q0 .719.352 1.297t.938.922 1.289.344q.734 0 1.328-.344t.945-.922.352-1.297zm9.281 0q0-1.078-.75-1.828t-1.828-.75q-1.063 0-1.813.75t-.75 1.828q0 .719.344 1.297t.93.922 1.289.344q.719 0 1.305-.344t.93-.922.344-1.297zm9.344 0q0-1.078-.758-1.828t-1.82-.75q-1.094 0-1.859.75t-.766 1.828q0 .719.352 1.297t.945.922 1.328.344q.703 0 1.289-.344t.938-.922.352-1.297z"/></svg>