<svg xmlns="http://www.w3.org/2000/svg" width="31" height="32" version="1.1" viewBox="0 0 31 32"><title>uni1001EFsmall</title><path d="M16.766 2.125v3.766q0 0.5-0.367 0.859t-0.852 0.359q-0.5 0-0.859-0.359t-0.359-0.859v-3.766q0-0.484 0.359-0.852t0.859-0.367q0.484 0 0.852 0.367t0.367 0.852zM16.766 22.641v3.766q0 0.484-0.367 0.852t-0.852 0.367q-0.5 0-0.859-0.367t-0.359-0.852v-3.766q0-0.5 0.359-0.859t0.859-0.359q0.484 0 0.852 0.359t0.367 0.859zM27.672 15.484h-3.766q-0.5 0-0.859-0.359t-0.359-0.859 0.359-0.859 0.859-0.359h3.766q0.5 0 0.859 0.359t0.359 0.859-0.359 0.859-0.859 0.359zM3.406 13.047h3.781q0.5 0 0.859 0.359t0.359 0.859-0.359 0.859-0.859 0.359h-3.781q-0.5 0-0.859-0.359t-0.359-0.859 0.359-0.859 0.859-0.359zM8.641 9.094l-2.641-2.672q-0.344-0.344-0.344-0.852t0.344-0.867q0.344-0.344 0.852-0.336t0.867 0.352l2.641 2.672q0.344 0.344 0.344 0.852t-0.344 0.852q-0.359 0.359-0.867 0.359t-0.852-0.359zM20.563 7.531l2.672-2.672q0.344-0.344 0.852-0.344t0.867 0.344q0.344 0.344 0.344 0.859t-0.344 0.875l-2.656 2.656q-0.359 0.344-0.875 0.344t-0.859-0.344q-0.344-0.359-0.344-0.867t0.344-0.852zM22.297 19.281l2.656 2.656q0.344 0.359 0.344 0.875t-0.344 0.859q-0.359 0.344-0.867 0.344t-0.852-0.344l-2.672-2.672q-0.344-0.344-0.344-0.852t0.344-0.867q0.344-0.344 0.859-0.344t0.875 0.344zM6.125 21.938l2.672-2.641q0.344-0.344 0.859-0.344t0.844 0.344q0.359 0.359 0.359 0.867t-0.359 0.852l-2.656 2.656q-0.344 0.344-0.859 0.344t-0.859-0.359q-0.344-0.344-0.344-0.852t0.344-0.867z"/></svg>