<!-- Generated by IcoMoon.io -->
<svg version="1.1" xmlns="http://www.w3.org/2000/svg" width="34" height="32" viewBox="0 0 34 32">
<title>uni10032Asmall</title>
<path d="M10.969 27.953q0.516 0 0.938-0.273t1.063-0.852l4.188-3.75h7.344q1.922 0 3.227-0.68t1.969-1.984 0.664-3.195v-9.094q0-1.891-0.664-3.195t-1.969-1.984-3.227-0.68h-15.516q-1.922 0-3.227 0.68t-1.969 1.984-0.664 3.195v9.094q0 1.891 0.664 3.195t1.969 1.984 3.227 0.68h0.453v3.109q0 0.813 0.398 1.289t1.133 0.477zM11.547 25.391v-3.516q0-0.578-0.242-0.813t-0.805-0.234h-1.516q-1.891 0-2.75-0.906t-0.859-2.703v-9.094q0-1.797 0.859-2.695t2.75-0.898h15.516q1.891 0 2.75 0.898t0.859 2.695v9.094q0 1.797-0.859 2.703t-2.75 0.906h-7.469q-0.563 0-0.914 0.117t-0.727 0.523z"></path>
</svg>
