<svg xmlns="http://www.w3.org/2000/svg" width="29" height="32" version="1.1" viewBox="0 0 29 32"><title>uni1003B9small</title><path d="M24.75 10.922q1.125 0 1.125-1.141v-2.906q0-1.969-0.992-2.945t-2.992-0.977h-2.906q-1.141 0-1.141 1.125t1.141 1.125h2.875q0.844 0 1.305 0.453t0.461 1.344v2.781q0 1.141 1.125 1.141zM7.109 25.703h2.906q1.141 0 1.141-1.125t-1.141-1.125h-2.875q-0.844 0-1.305-0.453t-0.461-1.344v-2.781q0-1.141-1.125-1.141t-1.125 1.141v2.906q0 1.969 1 2.945t2.984 0.977zM18.984 25.703h2.906q2 0 2.992-0.977t0.992-2.945v-2.906q0-1.141-1.125-1.141t-1.125 1.141v2.781q0 0.891-0.461 1.344t-1.305 0.453h-2.875q-1.141 0-1.141 1.125t1.141 1.125zM4.25 10.922q1.125 0 1.125-1.141v-2.781q0-0.891 0.461-1.344t1.305-0.453h2.875q1.141 0 1.141-1.125t-1.141-1.125h-2.906q-1.984 0-2.984 0.977t-1 2.945v2.906q0 1.141 1.125 1.141z"/></svg>