<!-- Generated by IcoMoon.io -->
<svg version="1.1" xmlns="http://www.w3.org/2000/svg" width="32" height="32" viewBox="0 0 32 32">
<title>uni100373small</title>
<path d="M12.25 22.484h16.344q0.516 0 0.813-0.281t0.297-0.766q0-0.5-0.297-0.773t-0.813-0.273h-16.172q-0.938 0-1.398-0.516t-0.461-1.391v-16.156q0-0.531-0.313-0.852t-0.813-0.32q-0.516 0-0.82 0.32t-0.305 0.852v16.281q0 1.953 0.977 2.914t2.961 0.961zM19.969 6.953h-16.359q-0.516 0-0.813 0.289t-0.297 0.773 0.297 0.766 0.813 0.281h16.172q0.938 0 1.406 0.508t0.469 1.383v16.172q0 0.531 0.305 0.852t0.82 0.32q0.5 0 0.813-0.32t0.313-0.852v-16.281q0-1.953-0.984-2.922t-2.953-0.969z"></path>
</svg>
