<!-- Generated by IcoMoon.io -->
<svg version="1.1" xmlns="http://www.w3.org/2000/svg" width="31" height="32" viewBox="0 0 31 32">
<title>uni100489small</title>
<path d="M11.719 26.313h7.719q0.719 0 1.242-0.148t0.938-0.438 0.789-0.711l4.578-5.125q0.641-0.703 0.852-1.273t0.211-1.492v-5.484q0-0.922-0.211-1.5t-0.852-1.281l-4.578-5.125q-0.375-0.422-0.789-0.711t-0.938-0.438-1.242-0.148h-7.719q-0.703 0-1.227 0.148t-0.938 0.438-0.789 0.711l-4.594 5.125q-0.625 0.703-0.836 1.281t-0.211 1.5v5.484q0 0.922 0.211 1.492t0.836 1.273l4.594 5.125q0.375 0.422 0.789 0.711t0.938 0.438 1.227 0.148zM12.516 24.063q-0.531 0-0.875-0.078t-0.602-0.273-0.555-0.523l-4.172-4.641q-0.344-0.406-0.461-0.727t-0.117-0.977v-4.922q0-0.672 0.117-0.992t0.461-0.711l4.172-4.641q0.297-0.328 0.555-0.523t0.602-0.281 0.875-0.086h6.125q0.547 0 0.883 0.086t0.594 0.281 0.57 0.523l4.172 4.641q0.344 0.391 0.461 0.711t0.117 0.992v4.922q0 0.656-0.117 0.977t-0.461 0.727l-4.172 4.641q-0.313 0.328-0.57 0.523t-0.594 0.273-0.883 0.078h-6.125zM11.453 19.625q0.484 0 0.781-0.328l3.328-3.344 3.344 3.344q0.344 0.328 0.797 0.328t0.781-0.328 0.328-0.797q0-0.453-0.328-0.781l-3.328-3.328 3.344-3.359q0.328-0.328 0.328-0.766 0-0.469-0.328-0.797t-0.781-0.328q-0.438 0-0.766 0.344l-3.391 3.344-3.344-3.328q-0.297-0.328-0.766-0.328-0.453 0-0.781 0.32t-0.328 0.773q0 0.469 0.328 0.781l3.328 3.344-3.328 3.344q-0.328 0.313-0.328 0.766 0 0.469 0.328 0.797t0.781 0.328z"></path>
</svg>
