<svg height="32" viewBox="0 0 29 32" width="29" xmlns="http://www.w3.org/2000/svg"><path d="m5.625 13.344h5.391q1.25 0 1.875-.641t.625-1.922v-5.281q0-1.281-.625-1.922t-1.875-.641h-5.391q-1.25 0-1.875.641t-.625 1.922v5.281q0 1.281.625 1.922t1.875.641zm12.375 0h5.391q1.266 0 1.883-.641t.617-1.922v-5.281q0-1.281-.617-1.922t-1.883-.641h-5.391q-1.25 0-1.875.641t-.625 1.922v5.281q0 1.281.625 1.922t1.875.641zm-12.375 12.375h5.391q1.25 0 1.875-.633t.625-1.93v-5.281q0-1.281-.625-1.914t-1.875-.633h-5.391q-1.25 0-1.875.633t-.625 1.914v5.281q0 1.297.625 1.93t1.875.633zm.016-1.969q-.563 0-.563-.578v-5.297q0-.594.563-.594h5.344q.578 0 .578.594v5.297q0 .578-.578.578zm0-12.375q-.563 0-.563-.594v-5.297q0-.578.563-.578h5.344q.578 0 .578.578v5.297q0 .594-.578.594zm12.359 14.344h5.391q1.266 0 1.883-.633t.617-1.93v-5.281q0-1.281-.617-1.914t-1.883-.633h-5.391q-1.25 0-1.875.633t-.625 1.914v5.281q0 1.297.625 1.93t1.875.633zm.031-1.969q-.578 0-.578-.578v-5.297q0-.594.578-.594h5.344q.563 0 .563.594v5.297q0 .578-.563.578zm0-12.375q-.578 0-.578-.594v-5.297q0-.578.578-.578h5.344q.563 0 .563.578v5.297q0 .594-.563.594z"/></svg>