<!-- Generated by IcoMoon.io -->
<svg version="1.1" xmlns="http://www.w3.org/2000/svg" width="30" height="32" viewBox="0 0 30 32">
<title>uni10079Bsmall</title>
<path d="M13.875 20.438q0.688 0 1.125-0.656l5.859-9.281q0.125-0.203 0.234-0.43t0.109-0.461q0-0.484-0.352-0.758t-0.805-0.273q-0.578 0-0.953 0.641l-5.281 8.531-2.625-3.5q-0.234-0.328-0.484-0.453t-0.531-0.125q-0.469 0-0.781 0.328t-0.313 0.781 0.313 0.859l3.281 4.141q0.281 0.328 0.563 0.492t0.641 0.164zM15.141 27.125q0.125 0 0.352-0.055t0.477-0.195q2.625-1.438 4.445-2.578t2.938-2.242 1.617-2.383 0.5-3.016v-9.406q0-0.953-0.43-1.367t-1.148-0.727q-0.484-0.203-1.547-0.602t-2.305-0.844-2.305-0.82-1.547-0.547q-0.234-0.078-0.508-0.133t-0.539-0.055-0.539 0.070-0.508 0.117q-0.484 0.125-1.547 0.492t-2.305 0.828-2.313 0.875-1.539 0.617q-0.719 0.313-1.148 0.727t-0.43 1.367v9.406q0 1.734 0.5 3.016t1.617 2.383 2.93 2.242 4.453 2.578q0.25 0.141 0.469 0.195t0.359 0.055zM15.141 24.563q-0.141 0-0.313-0.055t-0.484-0.242q-2.109-1.25-3.523-2.164t-2.242-1.75-1.188-1.828-0.359-2.414v-8.438q0-0.219 0.063-0.328t0.25-0.188q0.75-0.297 1.711-0.633t1.984-0.688 1.977-0.695 1.703-0.641q0.125-0.047 0.227-0.070t0.195-0.023 0.195 0.023 0.227 0.070q0.75 0.297 1.695 0.648t1.961 0.719 1.977 0.703 1.727 0.586q0.203 0.078 0.258 0.188t0.055 0.328v8.438q0 1.422-0.352 2.414t-1.18 1.828-2.242 1.75-3.539 2.164q-0.297 0.188-0.469 0.242t-0.313 0.055z"></path>
</svg>
