<!-- Generated by IcoMoon.io -->
<svg version="1.1" xmlns="http://www.w3.org/2000/svg" width="28" height="32" viewBox="0 0 28 32">
<title>uni100211small</title>
<path d="M22.625 23.859l0.797-17.516h1.297q0.422 0 0.727-0.313t0.305-0.734-0.305-0.734-0.727-0.313h-5.484v-1.781q0-1.391-0.844-2.195t-2.313-0.805h-4.547q-1.469 0-2.32 0.805t-0.852 2.195v1.781h-5.453q-0.406 0-0.719 0.313t-0.313 0.734 0.313 0.734 0.719 0.313h1.297l0.813 17.531q0.063 1.406 0.898 2.211t2.258 0.805h11.297q1.391 0 2.234-0.813t0.922-2.219zM10.594 2.609q0-0.469 0.313-0.766t0.797-0.297h4.203q0.5 0 0.805 0.297t0.305 0.766v1.641h-6.422v-1.641zM8.375 24.797q-0.484 0-0.813-0.328t-0.359-0.844l-0.813-17.281h14.797l-0.766 17.281q-0.016 0.516-0.344 0.844t-0.844 0.328h-10.859zM17.438 22.797q-0.359 0-0.586-0.266t-0.227-0.641l0.359-12.5q0-0.375 0.242-0.641t0.555-0.266q0.344 0 0.578 0.258t0.219 0.648l-0.344 12.516q-0.016 0.391-0.242 0.641t-0.555 0.25zM10.203 22.797q-0.344 0-0.57-0.25t-0.227-0.641l-0.359-12.516q0-0.391 0.227-0.648t0.57-0.258q0.328 0 0.563 0.266t0.25 0.641l0.344 12.5q0.016 0.375-0.219 0.641t-0.578 0.266zM13.813 22.797q-0.328 0-0.578-0.266t-0.25-0.625v-12.516q0-0.375 0.25-0.641t0.578-0.266q0.344 0 0.586 0.266t0.242 0.641v12.516q0 0.359-0.242 0.625t-0.586 0.266z"></path>
</svg>
