<!-- Generated by IcoMoon.io -->
<svg version="1.1" xmlns="http://www.w3.org/2000/svg" width="36" height="32" viewBox="0 0 36 32">
<title>uni100349small</title>
<path d="M8.797 24.438h12.594q2.297 0 3.609-1.289t1.313-3.586v-10.469q0-2.297-1.313-3.586t-3.609-1.289h-12.594q-2.188 0-3.563 1.289t-1.375 3.586v10.469q0 2.297 1.313 3.586t3.625 1.289zM9.172 22.328q-1.438 0-2.25-0.766t-0.813-2.313v-9.844q0-1.547 0.813-2.313t2.25-0.766h11.844q1.438 0 2.242 0.766t0.805 2.313v9.844q0 1.547-0.805 2.313t-2.242 0.766h-11.844zM26.016 10.75v2.656l5.813-4.844q0.047-0.047 0.086-0.063t0.102-0.016q0.125 0 0.125 0.188v11.313q0 0.188-0.125 0.188-0.063 0-0.102-0.023t-0.086-0.055l-5.813-4.844v2.656l4.781 4.109q0.375 0.313 0.797 0.508t0.797 0.195q0.859 0 1.391-0.578t0.531-1.469v-12.688q0-0.891-0.531-1.469t-1.391-0.578q-0.375 0-0.797 0.195t-0.797 0.508z"></path>
</svg>
