<svg height="32" viewBox="0 0 36 32" width="36" xmlns="http://www.w3.org/2000/svg"><path d="m8.797 24.438h12.656l-2.109-2.109h-10.172q-1.438 0-2.25-.766t-.813-2.313v-10.125l-2.25-2.266v12.703q0 2.297 1.313 3.586t3.625 1.289zm17.75 2.875q.328.313.773.313t.758-.313q.297-.313.305-.758t-.305-.758l-24.375-24.344q-.313-.328-.758-.328t-.773.328q-.297.297-.297.75t.297.766zm-5.156-23.094h-12.719l2.109 2.109h10.234q1.438 0 2.242.766t.805 2.313v9.719q0 .141-.008.234t-.008.219l1.953 1.969q.313-.844.313-1.797v-10.656q0-2.297-1.313-3.586t-3.609-1.289zm4.625 6.531v2.656l5.813-4.844q.047-.047.086-.063t.102-.016q.125 0 .125.188v11.313q0 .188-.125.188-.063 0-.102-.023t-.086-.055l-5.813-4.844v2.656l4.781 4.109q.375.313.797.508t.797.195q.859 0 1.391-.578t.531-1.469v-12.688q0-.891-.531-1.469t-1.391-.578q-.375 0-.797.195t-.797.508z"/></svg>