<svg height="32" viewBox="0 0 36 32" width="36" xmlns="http://www.w3.org/2000/svg"><path d="m8.797 24.438h12.594q2.297 0 3.609-1.289t1.313-3.586v-10.469q0-2.297-1.313-3.586t-3.609-1.289h-12.594q-2.188 0-3.563 1.289t-1.375 3.586v10.469q0 2.297 1.313 3.586t3.625 1.289zm.375-2.11q-1.438 0-2.25-.766t-.813-2.313v-9.844q0-1.547.813-2.313t2.25-.766h11.844q1.438 0 2.242.766t.805 2.313v9.844q0 1.547-.805 2.313t-2.242.766zm16.844-11.578v2.656l5.813-4.844q.047-.047.086-.063t.102-.016q.125 0 .125.188v11.313q0 .188-.125.188-.063 0-.102-.023t-.086-.055l-5.813-4.844v2.656l4.781 4.109q.375.313.797.508t.797.195q.859 0 1.391-.578t.531-1.469v-12.688q0-.891-.531-1.469t-1.391-.578q-.375 0-.797.195t-.797.508z"/></svg>