<!-- Generated by IcoMoon.io -->
<svg version="1.1" xmlns="http://www.w3.org/2000/svg" width="36" height="32" viewBox="0 0 36 32">
<title>uni10034Dsmall</title>
<path d="M8.797 24.438h12.656l-2.109-2.109h-10.172q-1.438 0-2.25-0.766t-0.813-2.313v-10.125l-2.25-2.266v12.703q0 2.297 1.313 3.586t3.625 1.289zM26.547 27.313q0.328 0.313 0.773 0.313t0.758-0.313q0.297-0.313 0.305-0.758t-0.305-0.758l-24.375-24.344q-0.313-0.328-0.758-0.328t-0.773 0.328q-0.297 0.297-0.297 0.75t0.297 0.766zM21.391 4.219h-12.719l2.109 2.109h10.234q1.438 0 2.242 0.766t0.805 2.313v9.719q0 0.141-0.008 0.234t-0.008 0.219l1.953 1.969q0.313-0.844 0.313-1.797v-10.656q0-2.297-1.313-3.586t-3.609-1.289zM26.016 10.75v2.656l5.813-4.844q0.047-0.047 0.086-0.063t0.102-0.016q0.125 0 0.125 0.188v11.313q0 0.188-0.125 0.188-0.063 0-0.102-0.023t-0.086-0.055l-5.813-4.844v2.656l4.781 4.109q0.375 0.313 0.797 0.508t0.797 0.195q0.859 0 1.391-0.578t0.531-1.469v-12.688q0-0.891-0.531-1.469t-1.391-0.578q-0.375 0-0.797 0.195t-0.797 0.508z"></path>
</svg>
