<!-- Generated by IcoMoon.io -->
<svg version="1.1" xmlns="http://www.w3.org/2000/svg" width="32" height="32" viewBox="0 0 32 32">
<title>uni100647small</title>
<path d="M4.344 12.859q0.172 0.188 0.414 0.18t0.414-0.195q2.172-2.313 4.969-3.5t5.984-1.188q3.219 0 6.016 1.203t4.984 3.5q0.156 0.172 0.391 0.164t0.406-0.18l1.672-1.688q0.156-0.172 0.164-0.359t-0.117-0.344q-1.391-1.719-3.5-3.070t-4.68-2.133-5.336-0.781-5.328 0.781-4.672 2.133-3.5 3.070q-0.125 0.156-0.125 0.344t0.172 0.359zM16.125 24.188q0.203 0 0.422-0.125t0.563-0.469l2.891-2.781q0.141-0.125 0.164-0.32t-0.086-0.367q-0.609-0.766-1.641-1.336t-2.313-0.57q-1.313 0-2.359 0.602t-1.641 1.398q-0.078 0.125-0.047 0.297t0.188 0.297l2.875 2.781q0.344 0.344 0.563 0.469t0.422 0.125zM9.234 17.766q0.188 0.203 0.422 0.188t0.422-0.234q1.047-1.172 2.656-1.938t3.391-0.75q1.797-0.016 3.414 0.773t2.695 1.961q0.172 0.188 0.391 0.188t0.406-0.188l1.875-1.859q0.156-0.156 0.172-0.344t-0.125-0.359q-1.344-1.641-3.688-2.75t-5.141-1.109-5.133 1.109-3.68 2.75q-0.141 0.172-0.133 0.352t0.18 0.352z"></path>
</svg>
