<!-- Generated by IcoMoon.io -->
<svg version="1.1" xmlns="http://www.w3.org/2000/svg" width="29" height="32" viewBox="0 0 29 32">
<title>uni1002ADsmall</title>
<path d="M8.828 12.875h6.984q0.375 0 0.648-0.281t0.273-0.641-0.273-0.641-0.648-0.281h-6.984q-0.375 0-0.648 0.281t-0.273 0.641 0.273 0.641 0.648 0.281zM12.313 19.125q1.469 0 2.773-0.563t2.289-1.555 1.547-2.289 0.563-2.766-0.563-2.773-1.547-2.289-2.289-1.547-2.773-0.563-2.766 0.563-2.289 1.547-1.555 2.289-0.563 2.773 0.563 2.766 1.555 2.289 2.289 1.555 2.766 0.563zM12.313 21.453q-1.953 0-3.68-0.742t-3.031-2.047-2.047-3.031-0.742-3.68q0-1.969 0.742-3.688t2.047-3.031 3.031-2.047 3.68-0.734q1.969 0 3.688 0.734t3.031 2.047 2.047 3.031 0.734 3.688q0 1.953-0.734 3.68t-2.047 3.031-3.031 2.047-3.688 0.742zM24.375 25.734q-0.297 0-0.586-0.109t-0.508-0.328l-6.313-6.313 2.219-2.156 6.266 6.281q0.219 0.219 0.328 0.5t0.109 0.594q0 0.656-0.43 1.094t-1.086 0.438z"></path>
</svg>
