<svg xmlns="http://www.w3.org/2000/svg" xmlns:xlink="http://www.w3.org/1999/xlink" id="Layer_1" x="0" y="0" version="1.1" viewBox="0 0 168.4 202.4" style="enable-background:new 0 0 168.4 202.4" xml:space="preserve"><style type="text/css">.st0{fill:url(#SVGID_1_)}</style><linearGradient id="SVGID_1_" x1="76.5" x2="39.8" y1="16.19" y2="126.19" gradientTransform="matrix(1 0 0 -1 -25.62 208.6029)" gradientUnits="userSpaceOnUse"><stop offset="0" style="stop-color:#386ed4"/><stop offset="1" style="stop-color:#6bb1d4"/></linearGradient><path d="M14.2,82.4h36.7v110H14.2C14.2,192.4,14.2,82.4,14.2,82.4z" class="st0"/><g><image style="overflow:visible" width="109" height="144" transform="matrix(1 0 0 1 -22 46.41)" xlink:href="DD671AC22C32EB2D.png"/></g><linearGradient id="SVGID_00000062894401284331445500000007238751340659557510_" x1="33.235" x2="175.335" y1="166.921" y2="24.021" gradientTransform="matrix(1 0 0 -1 -17.92 175.603)" gradientUnits="userSpaceOnUse"><stop offset="0" style="stop-color:#cf00ff"/><stop offset="1" style="stop-color:#5289cf"/></linearGradient><path style="fill:url(#SVGID_00000062894401284331445500000007238751340659557510_)" d="M79.9,152.8c-18.8-2.4-35.8-15.3-47.5-29.4	c-9.4-11.7-17.1-25.7-18.2-41h36.7c0.5,17.9,16,34.5,34.2,34.4c17.4,0.8,34-13.1,35.8-30.5c2.7-16.9-9-34.6-25.9-38.4	c-9.2-1.7-18.7-0.9-28-1.4l-16.9-0.4L14,10c23.1,0.3,46.2-0.1,69.4,0c11.2,0.8,22.7,2.1,32.8,7.5c24.7,11.7,41.2,38.5,40.2,65.9	c-0.5,20.4-10,41.1-26.7,53.2C114.5,146.4,98.2,154,79.9,152.8L79.9,152.8z"/><g><image style="overflow:visible" width="101" height="118" transform="matrix(1 0 0 1 26 71.41)" xlink:href="DD671AC22C32EB2F.png"/></g><linearGradient id="SVGID_00000040544723660418693860000000373957358342748862_" x1="922.846" x2="1285.164" y1="-1071.912" y2="-1391.327" gradientTransform="matrix(0.2646 0 0 -0.2646 -182.2645 -175.2055)" gradientUnits="userSpaceOnUse"><stop offset="0" style="stop-color:#ff6200"/><stop offset="1" style="stop-color:#ed1b37"/></linearGradient><path style="fill:url(#SVGID_00000040544723660418693860000000373957358342748862_)" d="M62.6,107.6c12,10.8,29.6,12.1,43.1,3.2	l52.7,81.4l-42.6-0.1C62.6,107.6,115.8,192.1,62.6,107.6L62.6,107.6z"/></svg>